<?xml version="1.0" encoding="UTF-8"?>
<svg viewBox="0 0 172.5 156.25" xmlns="http://www.w3.org/2000/svg">
 <g transform="matrix(1.25,0,0,-1.25,0,156.25)">
  <g transform="scale(.24)">
   <path d="m102.25 314.25c-13.457-16.332-40.539-72.582-38-89 5.793 4.957 21 13 21 13-2.707-8.043-13.121-64.293 0-101 0.418 16.918 46.254 94 57 99-6.582-13.332-15.957-92.5-10-112 4.461 9.082 27.379 25.75 34 10 5.879-15.5 34.004-48.832 69-27 5.629-30.168 55.629-46.832 96 8 29.418-6.918 64.781-3.301 68 44 8.293 2.207 18.711 9.5 22 3 17.543 17.957 19.629 33.582 18 58 15.168-2.543 28.711-14 33-23 3.004 20.457-7.414 59-21 73 10.461 0.582 20-4 20-4-6.414 18.125-32.789 68.402-61 84 33.754 58.082 36.879 136.21 23 159-22.582 2.207-114.25-36.332-147-114-8.914 1.625-42.562-5.074-48-12-26.539 65.707-107.79 115.71-142 111-8.4961-39.043-5.3711-156.75 6-180" fill="#ff8c00"/>
   <path d="m436.25 508.25c-32.871-13.457-117.25-110.33-121-146-20.207 3.375-85.832-3.918-97-11-20.082 51.875-89.871 127.92-122 143 41.504-2.582 112.02-55.117 142-111 6.793 3.207 42.211 13.625 48 12 40.043 67.25 117.13 126.62 150 113" fill="#fff"/>
   <path d="m169.25,354.25c-18.742,19.016-31.301,24.668-54,30 14.535,5.973 28,8 28,8-7.812,3.625-17.234,11.164-29,11 22.441,1.418 38.141-5.488 48-19-11.742.32-27,0-27,0 13.375-5.332 28.445-14.75 34-30" fill="#1f0000"/>
   <path d="m368.25,357.25c5.316,10.246 21.02,24.063 34,30-5.445,1.602-15.492,1.602-21,0 4.879,6.625 19.32,25.465 30,34-12.68-.883-34.031-12.812-49-34 3.781,3.484 20.66,13.648 26,16-5.969-6.746-10.914-14.398-13-20 3.969.578 12.762,1.832 15,2-11.031-5.82-19.195-19.637-22-28" fill="#1f0000"/>
   <path d="m248.25,229.25c-.082,38.457-20.914,54.082-37,54-15.164.082-33.914-14.5-37-26 5.168-19.75 23.918-74.957 74-28" fill="#e4e4c8"/>
   <path d="m304.25,237.25c.168,39.832 29.336,84.625 76,38-2.914-30.457-29.996-74.207-76-38" fill="#e4e4c8"/>
   <path d="m171.25,246.25c-.164,17.293 17.543,42.293 42,42 23.461.293 46.379-28.875 36-78l-3-8c-.164,19.625 5.043,76.918-36,77-22.496-.082-33.957-19.875-39-33" fill="#1f0000"/>
   <path d="m178.25 256.25c-8.207-23.957 23.043-81.25 67-34l3 10c-20.914-18.707-63.621-33.293-66 25l-4-1" fill="#1f0000"/>
   <path d="m219.25 213.25c9.129 14.875 3.918 35.707-3 40-11.832-9.5-9.746-31.375-6-41l9 1" fill="#007300"/>
   <path d="m344.25 226.25c9.516 14.766 4.309 35.598-3 40-11.441-9.609-9.359-31.484-5-41l8 1" fill="#007300"/>
   <path d="m300.25,208.25c-10.414,46.957 11.461,92.793 42,93 20.504-.207 31.961-9.582 38-30-13.332,18.332-70.621,49.582-80-63" fill="#1f0000"/>
   <path d="m304.25 237.25c4.336-16.418 71.004-39.332 75 26l-3 4c1.086-26.625-39.539-62.043-72-21v-9" fill="#1f0000"/>
   <path d="m202.25,168.25c2.527-.184 4.504,2.453 5,6-.496,2.961-2.473,5.602-5,6-2.355-.398-4.336-3.039-4-6-.336-3.547 1.645-6.184 4-6"/>
   <path d="m220.25,141.25c1.98-.266 3.961,2.371 4,6-.039,2.879-2.02,5.52-4,6-2.898-.48-4.879-3.121-5-6 .121-3.629 2.102-6.266 5-6"/>
   <path d="m222.25,161.25c2.066-.477 4.043,2.164 4,5 .043,3.672-1.934,6.309-4,6-2.816.309-4.793-2.328-5-6 .207-2.836 2.184-5.477 5-5"/>
   <path d="m330.25,150.25c2.398.109 4.379,2.746 4,6 .379,3.254-1.602,5.895-4,6-2.484-.105-4.461-2.746-4-6-.461-3.254 1.516-5.891 4-6"/>
   <path d="m346.25,177.25c2.023.191 4.004,2.828 4,6 .004,3.336-1.977,5.977-4,6-2.859-.023-4.836-2.664-5-6 .164-3.172 2.141-5.809 5-6"/>
   <path d="m352.25,133.25c2.273.441 4.254,3.078 4,6 .254,3.586-1.727,6.227-4,6-2.609.227-4.586-2.414-5-6 .414-2.922 2.391-5.559 5-6"/>
   <path d="m410.25 350.25c47.352 51.277 36.047 153.02 30 168-27.863-11.219-89.094-66.797-129-152-16.613 7.961-76.902-4.285-90-10-25.523 63.176-100.89 131.94-129 143-13.336-44.969-3.9141-163.66 9-183 0.273 30.641-5.3789 136.14 4 163 28.301-23.086 98.012-98.445 109-136 17.27 9.293 85.094 20.598 104 11 20.66 54.813 75.297 128.29 109 140 9.629-38.086-3.559-111.56-17-144" fill="#1f0000"/>
   <path d="m98.25 305.25c-26.871-18.648-45.711-78.934-42-107 0 0 15.129 26.18 21 30-3.9844-13.238-3.9844-32.078 2-45-0.3359 16.688 10.969 65.672 24 73-13.031-5.441-29.984-16.746-34-22 5.8984 20.324 19.086 61.773 29 71" fill="#1f0000"/>
   <path d="m419.25 512.25c-21.937-5.219-107.66-49.492-140-117-11.934-0.316-34.539-5.969-41-12 11.168 3.207 37.547 8.859 54 2 5.211 44.539 78.688 106.71 127 127" fill="#1f0000"/>
   <path d="m238.25 383.25c-16.148 36.176-78.32 109.65-137 114 31.359-14.711 87.879-42.969 137-114" fill="#1f0000"/>
   <path d="m420.25,346.25c24.164-16.316 52.426-57.762 57-88-6.461,3.859-21,9-21,9 15.484-17.387 20.191-43.762 22-56-10.285,23.543-21.59,55.57-47,70 8.453.645 23.527-3.125 29-6-7.355,31.137-30.906,62.223-40,71" fill="#1f0000"/>
   <path d="m263.25,127.25c.543-6.418 29.711-9.543 40,3l-7,10c-4.332-4.832-23.082-9-26-1l-7-12" fill="#590000"/>
   <path d="m109.25,177.25c2.461,32.125 25.379,68.582 47,80-15.371-21.832-20.582-61.418-18-80 9.918,16.5 38.043,31.082 48,33-19.332-27.957-26.621-77.957 2-97 27.629-18.457 82.836,29.457 94,44v-8c-19.496-37.793-51.789-59.668-84-60-32.371.332-51.121,53.457-26,108-23.039-12.875-37.621-49.332-40-67-5.957,21.832-5.957,76 3,93-7.914-4.5-21.457-31.582-26-46" fill="#1f0000"/>
   <path d="m233.25 102.25c1.379-21 48.254-63.707 92 3l-4 4c-18.914-23.832-66.832-41.543-81-2l-7-5" fill="#1f0000"/>
   <path d="m282.25,157.25c23.211-26 53.473-36.02 72-37 27.254-2.543 57.461,47.457 17,89 7.129-1.957 35.254-16.543 40-24 1.504,14.75.461,63.707-26,85 9.793-2.543 35.836-8.793 45-16 2.293,11.375-10.207,32.207-28,47 16.754-6.457 39.668-30.418 40-62-7.621,6.582-28.457,17-37,18 15.836-26 28.336-79.125 19-107-8.371,17.457-18.789,28.918-26,33 15.543-37.418-4.246-78.043-45-78-40.496-.043-62.371,32.25-71,44v8" fill="#1f0000"/>
   <path d="m269.25,159.25c3.918,5.332 6.004,18.875-1,20-7.582.957-21.121,3.043-19,9 2.043,6.543 14.543,7.582 18,4 2.793-2.668 12.168-1.625 16,2 4.504,2.625 9.711,2.625 14,0 4.043-3.625-.121-10.918-6-11-6.621.082-14.957-10.332-9-17 6.543-5.832 2.379-8.957 2-3 .379,6.543 1.418,16.957 7,16 4.836-1.125 20.461,7.207 15,17-4.957,8.957-22.664,4.793-27,1-3.996-4.543-20.664-2.457-23,2-1.832,3.875-16.414-7.582-13-14 2.836-6.082 30.961-8.168 26-26" fill="#590000"/>
   <path d="m203.25 157.25c-44.664 0.043-159.25-52.043-190-100 17.211 16.707 96.379 65.668 148 74-46.414-20.832-143.29-96.875-160-128 22.961 30.082 145.88 114.46 220 131-31.414-3-116.83-44.668-136-57 20.211 15.457 95.211 63.375 110 67-9.582 2.625-81.457-22.375-97-29 9.293 8.707 90.543 41 105 42" fill="#1f0000"/>
   <path d="m367.25 138.25c42.141 2.914 180.56-64.094 206-97-8.746 32.797-99.07 100.65-174 118 23.012 1.906 115.53-19.113 133-24-19.652 18.613-130.8 41.965-178 44 18.027-1.059 65.324-11.641 75-14-10.785 1.391-52.641 0.109-66-1 25.398-5.988 91.332-18.902 165-79-39.816 21.207-123.48 64.586-161 53" fill="#1f0000"/>
  </g>
 </g>
</svg>
