<?xml version="1.0" encoding="UTF-8"?>
<svg viewBox="0 0 1052.3622 744.09448" xmlns="http://www.w3.org/2000/svg">
 <defs>
  <linearGradient id="d" x1="339.31" x2="554.81" y1="552.68" y2="530.92" gradientTransform="matrix(1.2911 .050222 .038147 .77603 0 0)" gradientUnits="userSpaceOnUse">
   <stop stop-color="#171717" offset="0"/>
   <stop stop-color="#171717" stop-opacity="0" offset="1"/>
  </linearGradient>
  <linearGradient id="c" x1="48.356" x2="633.3" y1="677.5" y2="658.29" gradientTransform="matrix(1.5617 0 0 .64031 -7.0666 7.2066)" gradientUnits="userSpaceOnUse">
   <stop stop-color="#d7c8c8" offset="0"/>
   <stop stop-color="#d7c8c8" stop-opacity="0" offset="1"/>
  </linearGradient>
  <radialGradient id="b" cx="596.09" cy="555.62" r="22.404" gradientUnits="userSpaceOnUse">
   <stop stop-color="#f1e6e6" offset="0"/>
   <stop stop-color="#f1e6e6" stop-opacity="0" offset="1"/>
  </radialGradient>
  <radialGradient id="a" cx="354.03" cy="593.12" r="10.17" gradientTransform="scale(1.102 .90748)" gradientUnits="userSpaceOnUse">
   <stop stop-color="#f7f6ec" offset="0"/>
   <stop stop-color="#f7f6ec" stop-opacity="0" offset="1"/>
  </radialGradient>
 </defs>
 <g transform="matrix(1.0876 0 0 1.0415 117.8 -211.08)" fill-rule="evenodd">
  <path d="m156.64 353.01c3.2943-6.2457 16.262-12.09 21.244-17.074 4.1065-4.1088 22.091-1.1295 30.073-0.81908 12.129 0.47181 32.951 15.231 45.132 19.656 4.7057 1.7093 9.517 3.0221 14.276 4.5332 17.096 5.4288 30.821 15.113 47.143 19.734 11.924 3.3761 24.883 12.183 36.988 17.35s27.503 8.4263 40.717 11.529c13.713 3.2193 26.723 11.025 39 17.429 13.577 7.0811 28.497 11.507 42.925 15.592 13.384 3.7895 24.639 9.9383 34.879 15.279 10.05 5.2417 22.412 10.276 32.77 13.208 9.9874 2.8278 23.162 12.081 32.966 17.194 10.755 5.6092 21.126 13.539 31.15 21.101 8.7337 6.5886 15.47 12.169 18.984 18.639 3.5598 6.5537 3.7477 20.876 5.2962 26.062 1.6657 5.5791 23.366 13.158 26.834 14.966 8.5292 4.4485 12.624 12.367 17.071 20.553 4.7086 8.6687 11.776 12.806 15.255 24.461 3.2103 10.752 2.2383 17.218-0.83589 23.835-3.0276 6.516-18.204 10.556-23.451 13.01-8.5093 3.9812-12.32 8.1455-17.417 13.245-7.4603 7.4645-10.541 7.2612-15.209 17.309-2.2539 4.8508-13.436 9.2623-17.417 13.245-4.8307 4.8334-15.549 11.34-23.451 13.01-9.2817 1.9618-15.463 6.7916-25.658 8.9465-12.38 2.6167-18.001 7.2554-31.79 6.719-12.692-0.49372-26.584-9.982-36.89-15.358-12.239-6.3834-25.279-9.3016-36.89-15.358-10.632-5.5453-24.372-8.8283-32.77-13.208-10.874-5.6715-18.997-8.6947-30.562-9.1446-11.695-0.45496-27.109-6.2017-38.608-9.4576-15.13-4.2837-28.902-6.3369-42.827-13.6-14.116-7.3626-30.476-14.033-43.023-17.585-13.454-3.8092-27.851-12.855-39.196-21.414-11.655-8.7921-21.936-18.467-33.455-27.157-12.251-9.2418-23.586-15.874-33.26-23.172-16.079-12.13-24.847-30.085-40.371-45.327-13.523-13.278-18.478-11.951-23.497-28.759-2.9685-9.9426-3.1899-24.001-5.59-32.04-3.5229-11.8-2.2811-19.309-9.3189-26.218-11.075-10.874-14.519-7.012-19.18-22.624-3.5661-11.944-8.2359-22.591-11.722-34.268-4.1302-13.834-1.3298-23.377 8.7835-25.514 10.184-2.1524 20.07-2.7317 29.877-4.8046 10.956-2.3157 22.99 2.5793 32.378 5.2374 9.7258 2.7537 17.848 6.4484 28.649 11.059z" fill="url(#d)" opacity=".34409"/>
  <path d="m178.91 318.58h22.112c9.7786 0 19.982 1.0014 29.148 1.0014 11.107 0 33.746 11.303 43.219 16.022 9.9995 4.9812 20.457 7.1862 30.153 12.016 14.558 7.252 32.72 15.589 48.245 19.026 26.693 5.9097 48.051 23.635 73.372 32.044 17.913 5.9488 36.202 13.741 53.27 21.029 14.54 6.2085 28.417 8.4319 42.214 17.023 18.804 11.709 35.517 19.029 54.275 33.045 4.6113 3.4457 9.3809 6.6758 14.071 10.014 9.8084 6.98 18.131 17.284 29.148 20.027 6.0286 1.5016 7.9697 10.661 9.0459 16.022 1.3142 6.5468 3.7225 13.537 5.0255 20.027 1.7074 8.5056 1.0051 18.336 1.0051 27.037 0 5.9423 0.66996 10.681 2.0102 16.022 1.4875 5.9279 1.0051 12.616 1.0051 19.026 0 7.7127-0.53919 14.703-2.0102 22.03-1.3299 6.6247-6.365 14.352-11.056 19.026-6.6708 6.6461-12.909 12.292-20.102 18.025-8.8526 7.0558-16.415 10.18-26.133 15.021-7.6573 3.8145-16.234 5.8689-24.122 9.0124-11.848 4.7215-19.677 7.0096-33.168 7.0096-22.862 0-37.035-6.9587-58.296-14.019-20.472-6.7988-40.188-17.352-60.306-24.033-15.455-5.1325-33.374-10.856-49.25-14.019-25.246-5.0306-50.485-21.115-74.377-30.041l-8.0408-3.0041c-16.983-6.3449-34.946-17.578-52.265-21.029-9.8023-1.9532-21.513-11.686-29.148-18.025-13.137-10.907-34.971-32.643-51.26-38.052-6.7583-2.2444-17.824-13.318-24.122-18.025-9.5253-7.1175-14.008-21.195-18.092-32.044l-3.0153-8.011c-3.6752-9.7642-8.7416-18.236-6.0306-29.04 1.1079-4.4151-0.01849-9.6554 4.0204-15.021 3.1204-4.1451 5.6191-7.7982 8.0408-11.015 2.874-3.8178 3.6909-5.68 7.0357-9.0124 3.0153-3.0041 6.4873-5.6136 9.0459-9.0124 3.76-4.9948 5.689-10.228 10.051-16.022 3.1421-4.174 8.8207-9.5651 11.056-14.019 2.2072-4.398 5.4738-9.1275 7.0357-13.018 1.8999-4.7322 6.9088-5.8818 11.056-10.014 3.2707-3.2586 6.6909-9.5557 10.051-14.019 8.262-10.975 7.0164-9.0124 16.082-9.0124z" fill="#d59558"/>
  <path d="m173.05 360.93c-0.11072-1.8777 2.3023-11.743 4.0204-16.022 2.3187-5.7752 14.107-4.0055 19.097-4.0055 5.9463 0 15.803 11.196 23.117 13.018 7.502 1.8686 15.605 1.133 23.117 3.0041 10.114 2.5192 17.997 15.323 29.148 19.026 10.676 3.5454 23.03 2.0027 34.173 2.0027 9.333 0 16.232 9.0124 27.138 9.0124 14.17 0 35.56 6.6988 48.245 13.018 16.812 8.3749 30.96 16.183 50.255 20.027 7.4386 1.4822 16.548 11.48 22.112 17.023 8.3135 8.2827 17.771 7.4305 28.143 10.014 15.795 3.9342 30.832 11.269 46.234 17.023 10.479 3.9152 18.405 3.0538 27.138 10.014 5.6865 4.5324 13.224 9.1694 19.097 15.021 9.0304 8.997 15.28 7.3583 5.0255 15.021-1.2846 0.95987-2.79 11.568-3.0153 12.016-1.7404 3.4679-5.2679 7.4927-7.0357 11.015-2.5093 5-2.5029 7.9913-5.0255 13.018-7.6538 15.251-41.026 24.238-56.285 28.038-44.189 11.006-116.66-37.579-160.82-54.074-31.18-11.649-55.898-35.953-88.448-44.06-27.445-6.8358-73.349-48.043-94.479-69.095-8.15-8.1198 2.7e-4 -27.038 4.0204-35.048 1.0595-2.1111 3.3503-3.3379 5.0255-5.0069z" fill="#bdaf3d"/>
  <path d="m173.88 364.65c-0.11072-1.8777 2.3023-11.743 4.0204-16.022 2.3187-5.7752 14.107-4.0055 19.097-4.0055 5.9463 0 15.803 11.196 23.117 13.018 7.502 1.8686 15.605 1.133 23.117 3.0041 10.114 2.5192 17.997 15.323 29.148 19.026 10.676 3.5454 23.03 2.0027 34.173 2.0027 9.333 0 16.232 9.0124 27.138 9.0124 14.17 0 35.56 6.6988 48.245 13.018 16.812 8.3749 30.96 16.183 50.255 20.027 7.4386 1.4822 16.548 11.48 22.112 17.023 8.3135 8.2827 17.771 7.4305 28.143 10.014 15.795 3.9342 30.832 11.269 46.234 17.023 10.479 3.9152 18.405 3.0538 27.138 10.014 5.6865 4.5324 13.224 9.1694 19.097 15.021 9.0304 8.997 15.28 7.3583 5.0255 15.021-1.2846 0.95987-2.79 11.568-3.0153 12.016-1.7404 3.4679-5.2679 7.4927-7.0357 11.015-2.5093 5-2.5029 7.9913-5.0255 13.018-7.6538 15.251-41.026 24.238-56.285 28.038-44.189 11.006-116.66-37.579-160.82-54.074-31.18-11.649-55.898-35.953-88.448-44.06-27.445-6.8358-73.349-48.043-94.479-69.095-8.15-8.1198 2.7e-4 -27.038 4.0204-35.048 1.0595-2.1111 3.3503-3.3379 5.0255-5.0069z" fill="#e0c93d"/>
  <path d="m174.02 366.59c-0.11072-1.8777 2.3023-11.743 4.0204-16.022 2.3187-5.7752 14.107-4.0055 19.097-4.0055 5.9463 0 15.803 11.196 23.117 13.018 7.502 1.8686 15.605 1.133 23.117 3.0041 10.114 2.5192 17.997 15.323 29.148 19.026 10.676 3.5454 23.03 2.0027 34.173 2.0027 9.333 0 16.232 9.0124 27.138 9.0124 14.17 0 35.56 6.6988 48.245 13.018 16.812 8.3749 30.96 16.183 50.255 20.027 7.4386 1.4822 16.548 11.48 22.112 17.023 8.3135 8.2827 17.771 7.4305 28.143 10.014 15.795 3.9342 30.832 11.269 46.234 17.023 10.479 3.9152 18.405 3.0538 27.138 10.014 5.6865 4.5324 13.224 9.1694 19.097 15.021 9.0304 8.997 15.28 7.3583 5.0255 15.021-1.2846 0.95987-2.79 11.568-3.0153 12.016-1.7404 3.4679-5.2679 7.4927-7.0357 11.015-2.5093 5-2.5029 7.9913-5.0255 13.018-7.6538 15.251-41.026 24.238-56.285 28.038-44.189 11.006-116.66-37.579-160.82-54.074-31.18-11.649-55.898-35.953-88.448-44.06-27.445-6.8358-73.349-48.043-94.479-69.095-8.15-8.1198 2.7e-4 -27.038 4.0204-35.048 1.0595-2.1111 3.3503-3.3379 5.0255-5.0069z" fill="#e3cf55"/>
  <path d="m297.31 520.25c3.6616 1.7944 1.7164 0.84112 0 0-44.68-21.895 40.733 15.019 52.44 20.756 21.517 10.544 43.134 17.46 65.55 25.698 30.117 11.069 69.948 20.994 96.812 38.547 11.701 7.6454 34.035 15.814 47.398 15.814 8.4356 0 21.177 1.9766 29.245 3.9536 7.0527 1.7281 15.494 0.9884 23.195 0.9884 5.561 0 11.089 0.24809 16.135-0.9884 4.149-1.0166 10.042-3.4386 13.11-4.942 5.5661-2.7277 7.2769-2.4035 10.085-7.9072 2.9821-5.8455 7.0592-14.311 7.0592-21.745 0-6.1446 1.0085-13.236 1.0085-19.768 0-8.1633-1.4407-14.685-5.0423-21.745-3.1852-6.2436-9.868-11.14-16.135-14.826-10.629-6.2503-19.931-9.2731-31.262-14.826-10.428-5.11-25.177-8.1458-36.305-10.872-10.99-2.6928-23.668-8.6858-34.288-12.849-20.475-8.0271-39.2-16.76-60.508-23.722-24.681-8.0633-48.491-18.811-72.609-27.675-1.1348-0.4171-2.0169-1.3178-3.0254-1.9768-23.068-15.073-58.138-23.856-83.702-34.594-19.862-8.3429-40.239-14.283-59.499-23.722-12.978-6.36-27.32-10.711-40.339-15.814-13.004-5.0981-28.266-7.9216-40.339-13.838-12.015-5.8881-24.741-7.1824-36.305-12.849-8.4642-4.1479-13.701-10.523-23.195-12.849-7.2453-1.7753-13.198-5.2105-20.169-6.9188-7.9027-1.9364-12.646 2.3878-19.161 4.942-6.1386 2.4066-10.393 6.2328-15.127 10.872-3.4599 3.391-5.0423 9.4584-5.0423 13.838 0 5.9249-0.48197 10.916 2.0169 15.814 2.5523 5.003 2.3723 11.569 5.0423 16.803 3.0565 5.9914 6.2589 9.565 10.085 15.814 3.6792 6.0099 8.4678 10.515 14.118 13.838 8.724 5.1302 19.184 13.197 27.229 19.768 2.3809 1.9446 4.7062 3.9536 7.0592 5.9304 26.465 22.232 58.156 39.208 82.694 63.257 17.589 17.239 80.52 50.37 104.88 56.339 3.7711 0.92401 1.5717-13.606 1.0085-15.814-1.5538-6.0916-5.3263-11.012-11.093-13.838-2.5286-1.2392-2.4969-6.3059-3.0254-8.8956z" fill="#c54d58"/>
  <path d="m311.94 521.37c3.338 1.5973 1.5647 0.74874 0 0-40.731-19.491 37.133 13.37 47.806 18.477 19.615 9.3863 39.322 15.542 59.757 22.876 27.456 9.8537 63.766 18.689 88.257 34.314 10.667 6.8058 31.027 14.078 43.209 14.078 7.6901 0 19.305 1.7595 26.661 3.5194 6.4294 1.5383 14.124 0.87986 21.145 0.87986 5.0695 0 10.109 0.22083 14.709-0.87986 3.7823-0.90497 9.1548-3.061 11.951-4.3993 5.0742-2.4281 6.6338-2.1395 9.1934-7.0388 2.7185-5.2035 6.4354-12.74 6.4354-19.357 0-5.4698 0.91935-11.783 0.91935-17.597 0-7.2668-1.3134-13.072-4.5967-19.357-2.9037-5.558-8.996-9.9169-14.709-13.198-9.6894-5.5639-18.17-8.2547-28.5-13.198-9.506-4.5488-22.952-7.2513-33.096-9.6784-10.019-2.3971-21.576-7.7319-31.258-11.438-18.666-7.1456-35.736-14.92-55.16-21.116-22.5-7.1778-44.205-16.745-66.193-24.636-1.0346-0.37128-1.8387-1.1731-2.758-1.7597-21.029-13.417-53-21.236-76.305-30.795-18.107-7.4267-36.683-12.715-54.241-21.116-11.831-5.6616-24.906-9.5345-36.774-14.078-11.855-4.5383-25.768-7.0516-36.774-12.318-10.953-5.2415-22.555-6.3936-33.096-11.438-7.7162-3.6924-12.49-9.3674-21.145-11.438-6.605-1.5803-12.031-4.6383-18.387-6.159-7.2043-1.7237-11.528 2.1256-17.467 4.3993-5.5961 2.1423-9.4747 5.5483-13.79 9.6784-3.1541 3.0186-4.5967 8.4197-4.5967 12.318 0 5.2742-0.43938 9.7172 1.8387 14.078 2.3268 4.4536 2.1627 10.298 4.5967 14.957 2.7864 5.3334 5.7058 8.5146 9.1934 14.078 3.354 5.3499 7.7195 9.3599 12.871 12.318 7.953 4.5668 17.488 11.748 24.822 17.597 2.1704 1.731 4.2902 3.5194 6.4354 5.2791 24.126 19.791 53.017 34.902 75.386 56.311 16.035 15.346 73.404 44.838 95.611 50.152 3.4378 0.82253 1.4328-12.112 0.91933-14.078-1.4165-5.4226-4.8556-9.8023-10.113-12.318-2.3051-1.1031-2.2763-5.6134-2.758-7.9187z" fill="#c93d4a" opacity=".82258"/>
  <path d="m121.62 424.73-1.0051-1.0014c-6.9915-6.9656-13.082-29.008-8.0408-39.054 2.3482-4.6791 10.172-6.7894 15.076-8.011 6.1994-1.5441 8.4529-0.59077 12.061 3.0041 4.3251 4.309 9.1223 8.3185 14.071 12.016 4.3901 3.2804 8.5724 6.6413 14.071 8.011 3.6447 0.90781 10.099 5.0307 14.071 7.0096 5.2416 2.6111 14.316 1.6998 20.102 4.0055 7.4384 2.9643 14.133 5.0686 20.102 11.015 27.78 27.677-5.4178-5.5606 24.122 16.022 6.0154 4.3949 14.491 5.7167 21.107 9.0124 9.255 4.6104 16.127 7.0436 24.122 13.018 6.262 4.6791 7.6846 10.143 17.087 12.016 9.4683 1.8866 21.473 0.27378 29.148 6.0082 8.6556 6.4676 15.846 3.7708 23.117 11.015 6.7395 6.7146 16.156 12.823 23.117 18.025 3.962 2.9605 14.853 4.0055 21.107 4.0055 11.43 0 21.84 2.4357 32.163 5.0069 6.713 1.672 11.336 5.4667 16.082 9.0124 6.0974 4.5562 14.329 4.6577 21.107 6.0082 7.7034 1.535 14.63 2.5146 22.112 4.0055 7.9484 1.5838 16.257 3.4396 24.122 5.0069 8.0358 1.6012 13.957 6.7826 17.087 13.018 1.2086 2.4083-8.651 4.8102-11.056 6.0082-10.093 5.0278 10.78 13.744 15.076 18.025 2.6446 2.6348-6.8245 7.8006-8.0408 9.0124-5.948 5.926-9.359 9.591-19.097 12.016-18.191 4.531-25.11 9.0124-45.229 9.0124-56.368 0-106.86-29.698-155.79-54.074-42.41-21.127-85.422-31.04-130.66-40.055-31.341-6.2451-39.496-34.12-53.27-56.077-1.4316-2.2821-2.6803-4.6731-4.0204-7.0096-2.4604-4.2898-4.0204-8.1872-4.0204-14.019v-11.015z" fill="#ada92f"/>
  <path d="m536.72 570.93c2.8927 2.3612 8.8429 8.608 11.056 13.018 2.4524 4.8866 9.2315 11.2 13.066 15.021 3.7921 3.7781 6.5135 8.6525 9.0459 12.016 2.6177 3.4774 2.2365 7.235 6.0306 11.015 2.2333 2.225 8.7441 3.1793 12.061 4.0055 4.7384 1.1802 5.6833 3.0041 12.061 3.0041 5.2066 0 10.855 1.6018 14.071 4.0055 6.1731 4.6127-4.9179 12.437-7.0357 14.019-3.5111 2.6236-8.1206 6.048-12.061 8.011-4.6784 2.3306-9.4579 3.7101-14.071 6.0082-5.166 2.5734-9.6631 4.6599-15.076 6.0082-5.4662 1.3615-11.264 4.6098-16.082 7.0096-3.5868 1.7867-11.978 1.0014-16.082 1.0014h-20.102c-5.5773 0-11.008-1.7404-16.082-3.0041-6.718-1.6733-13.664-1.4007-20.102-3.0041-7.4729-1.8613-15.898-5.134-23.117-8.011-6.0081-2.3943-12.063-4.0063-18.092-7.0096-9.2285-4.5972-19.677-7.536-30.153-11.015-6.3237-2.1001-12.363-4.156-18.092-7.0096-8.3681-4.1685-17.622-7.894-26.133-10.014-7.9329-1.9759-18.993-6.7472-26.132-11.015-7.7969-4.6608-20.067-9.0036-28.143-11.015-7.8-1.9428-15.882-6.4095-23.117-10.014-7.2616-3.6173-16.763-7.1794-24.122-9.0124s-12.76-7.1836-20.102-9.0124c-6.4633-1.6098-13.228-7.4423-21.107-9.0124-6.5277-1.3007-12.278-6.4203-17.087-10.014-6.8266-5.101-15.416-6.0118-22.112-11.015-5.5542-4.1502-12.519-7.4661-17.087-12.016-3.5304-3.5173-9.597-5.669-14.071-9.0124-5.5377-4.1379-11.214-6.6272-17.087-11.015-6.3386-4.7363-9.9043-10.727-17.087-15.021-6.6405-3.9695-8.3124-10.284-13.066-15.021-4.6916-4.6742-5.2055-12.375-8.0408-18.025-2.6728-5.3259-3.6927-13.203-6.0306-19.026-1.7402-4.3343 1.0771-11.302 2.0102-15.021 1.297-5.1688 1.778-10.09 3.0153-15.021 1.6703-6.6566 10.053-7.3442 15.076-9.0124 0.63569-0.21111-1.3401 0-2.0102 0-19.119 0 16.368-4.0055 23.117-4.0055 6.7589 0 14.009 3.9435 18.092 8.011 3.3181 3.3058 9.9317 6.7296 15.076 8.011 8.3544 2.0808 13.343 7.5177 22.112 10.014 6.6065 1.8806 13.359 5.1527 19.097 8.011 7.4115 3.692 14.836 5.3879 22.112 9.0124l26.133 13.018c6.7996 3.3872 16.634 6.1457 24.122 8.011 8.3362 2.0763 15.626 7.0284 23.117 10.014 8.7132 3.4724 16.964 5.9472 25.127 10.014 10.626 5.2934 25.552 8.2223 35.178 13.018 8.7697 4.3686 19.633 5.5409 27.138 13.018 4.4214 4.4051 19.251 7.5486 25.127 9.0124 7.7078 1.9198 14.6 5.2703 22.112 9.0124 8.1049 4.0374 18.439 7.8472 27.138 10.014 7.8071 1.9445 16.051 5.993 22.112 9.0124 5.5519 2.7657 10.308 4.0568 15.076 5.0069 5.8656 1.1688 9.8964 2.4264 15.076 5.0069 5.3229 2.6516 11.758 3.8545 16.082 6.0082 3.3503 1.6689 3.3982 2.1553 8.0408 4.0055z" fill="#c6652e"/>
  <path d="m69.791 332.37c5.0956 2.8301 22.387 13.48 31.531 15.766 29.105 7.2763 57.575 24.547 86.711 35.473 15.255 5.7206 34.992 13.795 51.239 13.795 21.855 0 57.389 20.443 78.829 27.59 16.864 5.6212 31.614 13.087 49.268 19.707 17.051 6.3942 32.486 12.994 49.268 19.707 14.728 5.8914 28.51 11.123 41.385 19.707 4.1626 2.7751 9.1967 3.9414 13.795 5.9122 8.9594 3.8397 12.359 6.1796 19.707 9.8536 6.1779 3.089 12.618 8.2799 19.707 11.824 8.2243 4.1122 16.329 6.194 23.649 9.8536 6.6495 3.3248 17.853 3.9414 27.59 3.9414 7.2616 0 19.692 4.4303 25.619 5.9122 18.072 4.5181 9.1745 12.979-1.9707 15.766-12.764 3.191-17.524 4.0474-29.561-1.9707-9.3189-4.6595-17.619-5.8243-25.619-11.824-8.7038-6.5278-21.082-8.5702-31.531-13.795-11.423-5.7113-20.166-8.1122-31.531-13.795-10.238-5.1188-17.547-6.803-27.59-11.824-12.113-6.0565-26.755-11.263-39.414-13.795-14.602-2.9204-40.936-18.67-57.151-25.619-16.814-7.2061-36.452-14.385-53.209-17.736-31.889-6.3778-63.48-25.102-94.594-35.473-15.356-5.1188-32.299-7.7959-47.297-13.795-15.293-6.1174-29.852-13.517-45.326-19.707-13.455-5.3819-17.861-8.9613-29.561-17.736-6.5-4.875-5.9178-7.8544-3.9414-17.736z" fill="url(#c)" opacity=".22043"/>
  <path d="m125.1 361.29c4.0827 0.30216 12.085-3.5109 18.092-5.0069 5.4327-1.3531 11.335-1.0014 17.087-1.0014 5.9502 0 7.2018 10.676 8.0408 14.019 1.4485 5.7726 7.4154 5.8525 12.061 7.0096 7.2737 1.8117 17.503 0 25.127 0 6.9549 0 12.65 2.721 19.097 4.0055 6.2518 1.2457 5.9003 7.5289 5.0255 11.015-1.659 6.6115-6.0318 5.0018-4.0204 13.018 0.88066 3.5096 15.452 2.0027 18.092 2.0027h48.245c7.1329 0 7.2499 4.1533 6.0306 9.0124-1.4711 5.8625-8.299 5.9805-6.0306 15.021 0.25822 1.0291 20.302 3.5547 22.112 4.0055 7.2975 1.8176 17.612 0 25.127 0h30.153c8.1908 0 15.133-0.77779 17.087 7.0096 1.6572 6.6042-2.494 9.0872-1.0051 15.021 1.6603 6.6168 9.9362 9.4845 16.082 11.015 2.777 0.69169 5.3605 2.0028 8.0408 3.0041 7.8557 2.935 18.855 1.0014 27.138 1.0014 12.413 0 22.407 1.0747 34.173 4.0055 6.4552 1.6078 3.655 13.746 2.0102 17.023-0.11746 0.23406 14.018 2.4901 28.143 6.0082 18.298 4.5575 37.058 8.3854 55.28 12.016 7.5404 1.5025 17.08 0.97481 19.097 9.0124 1.6534 6.5892-0.24092 6.2483-4.0204 10.014-2.8498 2.8393-12.083 4.0108-16.082 5.0069-7.8609 1.9579-12.861-0.67813-20.102-5.0069-7.0644-4.2229-11.874-7.2135-19.097-9.0124-7.8028-1.9435-16.91-1.0014-25.127-1.0014-9.0383 0-17.397 1.7406-26.133 0-6.0093-1.1974-10.019-10.951-12.061-15.021-2.0892-4.163 1.7361-10.105 1.0051-13.018-0.97958-3.9038-20.554-2.0028-23.117-2.0028-8.366 0-17.056 2.0105-25.127 0-9.0387-2.2513-18.771-4.8444-27.138-9.0124-6.4061-3.1912-6.2275-3.7889-8.0408-11.015-1.5316-6.1036-1.795-9.1561-3.0153-14.019-1.1717-4.6695-3.3068-6.0082-9.0459-6.0082h-39.199c-8.4474 0-12.699-1.1602-20.102-3.0041-5.6383-1.4044-10.749-1.8499-15.076-4.0055-5.669-2.824-12.061-3.7826-12.061-10.014 0-6.8761 5.2913-7.4814 2.0102-14.019-0.95197-1.8969-11.999-2.0028-15.076-2.0028h-39.199c-6.8346 0-11.545-4.4931-15.076-8.011-3.1346-3.1229-2.0102-9.1191-2.0102-14.019 0-7.4942-9.3815-4.5898-15.076-6.0082-6.2749-1.5629-14.04 0.20659-20.102-1.0014-7.0482-1.4044-12.505-2.7704-14.071-9.0124-1.4191-5.6554-1.6527-6.4199-8.0408-8.011-6.0923-1.5174-10.795 1.0014-16.082 1.0014-7.6306 0-9.0459 3.111-9.0459-6.0082 0-3.8003-0.62215-1.7548 5.0255-4.0055z" fill="#ffe422"/>
  <path transform="translate(8.361 2.787)" d="m626.69 557.71a34.488 33.502 0 1 1 -68.975 0 34.488 33.502 0 1 1 68.975 0z" fill="url(#b)" opacity=".34946"/>
  <path d="m137.63 424.22c-6.847-8.0257-18.119-14.87-30.717-14.214-3.5401 0.18437-0.02247 32.553 0.23955 36.887 0.99493 16.457 9.6477 28.466 17.939 33.329 10.663 6.2541 23.061 19.85 31.511 27.351 24.284 21.557 46.016 45.995 73.419 62.068 31.239 18.322 72.927 32.391 105.88 39.292 42.262 8.8494 90.22 14.528 131.2 30.066 17.26 6.5448 35.687 3.2998 52.226 7.8227 9.4091 2.5732 22.122-1.1522 31.748-1.6535 13.253-0.6902 18.729-3.7309 22.858-17.004 5.2362-16.835-13.198-20.405-21.272-22.613-13.482-3.687-22.261-12.019-36.511-11.277-15.799 0.82284-29.671-1.0903-45.796-0.2505-30.004 1.5627-63.324-29.146-91.991-40.015-18-6.8254-36.891-25.244-55.798-33.993-13.401-6.2015-27.084-12.854-37.146-21.786-12.154-10.789-19.968-15.512-31.193-22.096-15.335-8.9941-33.102-14.346-49.21-23.794-12.998-7.6232-28.528-11.658-38.971-19.056-8.2027-5.8106-17.367-1.237-28.415-9.0627z" fill="#b85828" opacity=".33333"/>
  <path d="m126.41 464.96c-9.3571-13.572-10.668-17.175 4.8263-17.677 18.256-0.59084 42.697 15.282 61.881 19.411 11.301 2.4322 32.042 11.423 43.47 18.06 16.469 9.5645 36.563 16.366 52.164 21.672 16.41 5.5817 33.146 9.0476 49.671 15.913 17.534 7.2846 33.055 10.584 50.502 17.833 15.992 6.644 28.675 8.0306 42.639 16.14 12.563 7.2959 30.068 11.694 41.808 14.221 11.269 2.4252 26.68 10.297 36.534 14.391 13.99 5.8125 24.212 14.772 34.488 26.138 11.716 12.958 5.4068 14.133-4.8262 17.677-7.5301 2.6077-14.343 9.9344-21.383 12.372-9.3857 3.2504-20.78 1.6212-32.474-0.89569-10.24-2.2038-22.185-8.6917-31.356-10.665-9.6099-2.0682-19.774-6.9183-30.525-8.7456-20.897-3.5519-55.651-21.086-76.584-28.669-27.627-10.008-55.37-25.366-81.666-36.291-14.645-6.0844-30.115-11.269-43.566-14.164-16.406-3.5309-39.251-17.668-55.488-29.351-11.063-7.9605-22.662-14.984-30.237-20.435-4.0119-2.8867-9.3496-24.811-9.8768-26.934z" fill="#b7542a" opacity=".44624"/>
  <path d="m126.88 366.39c4.0827 0.30216 12.085-3.5109 18.092-5.0069 5.4327-1.3531 11.335-1.0014 17.087-1.0014 5.9502 0 7.2018 10.676 8.0408 14.019 1.4485 5.7726 7.4154 5.8525 12.061 7.0096 7.2737 1.8117 17.503 0 25.127 0 6.9549 0 12.65 2.721 19.097 4.0055 6.2518 1.2457 5.9003 7.5289 5.0255 11.015-1.659 6.6115-6.0318 5.0018-4.0204 13.018 0.88066 3.5096 15.452 2.0027 18.092 2.0027h48.245c7.1329 0 7.2499 4.1533 6.0306 9.0124-1.4711 5.8625-8.299 5.9805-6.0306 15.021 0.25822 1.0291 20.302 3.5547 22.112 4.0055 7.2975 1.8176 17.612 0 25.127 0h30.153c8.1908 0 15.133-0.77779 17.087 7.0096 1.6572 6.6042-2.494 9.0872-1.0051 15.021 1.6603 6.6168 9.9362 9.4845 16.082 11.015 2.777 0.69169 5.3605 2.0028 8.0408 3.0041 7.8557 2.935 18.855 1.0014 27.138 1.0014 12.413 0 22.407 1.0747 34.173 4.0055 6.4552 1.6078 3.655 13.746 2.0102 17.023-0.11746 0.23406 14.018 2.4901 28.143 6.0082 18.298 4.5575 37.058 8.3854 55.28 12.016 7.5404 1.5025 17.08 0.97481 19.097 9.0124 1.6534 6.5892-0.24092 6.2483-4.0204 10.014-2.8498 2.8393-12.083 4.0108-16.082 5.0069-7.8609 1.9579-12.861-0.67813-20.102-5.0069-7.0644-4.2229-11.874-7.2135-19.097-9.0124-7.8028-1.9435-16.91-1.0014-25.127-1.0014-9.0383 0-17.397 1.7406-26.133 0-6.0093-1.1974-10.019-10.951-12.061-15.021-2.0892-4.163 1.7361-10.105 1.0051-13.018-0.97958-3.9038-20.554-2.0028-23.117-2.0028-8.366 0-17.056 2.0105-25.127 0-9.0387-2.2513-18.771-4.8444-27.138-9.0124-6.4061-3.1912-6.2275-3.7889-8.0408-11.015-1.5316-6.1036-1.795-9.1561-3.0153-14.019-1.1717-4.6695-3.3068-6.0082-9.0459-6.0082h-39.199c-8.4474 0-12.699-1.1602-20.102-3.0041-5.6383-1.4044-10.749-1.8499-15.076-4.0055-5.669-2.824-12.061-3.7826-12.061-10.014 0-6.8761 5.2913-7.4814 2.0102-14.019-0.95197-1.8969-11.999-2.0028-15.076-2.0028h-39.199c-6.8346 0-11.545-4.4931-15.076-8.011-3.1346-3.1229-2.0102-9.1191-2.0102-14.019 0-7.4942-9.3815-4.5898-15.076-6.0082-6.2749-1.5629-14.04 0.20659-20.102-1.0014-7.0482-1.4044-12.505-2.7704-14.071-9.0124-1.4191-5.6554-1.6527-6.4199-8.0408-8.011-6.0923-1.5174-10.795 1.0014-16.082 1.0014-7.6306 0-9.0459 3.111-9.0459-6.0082 0-3.8003-0.62215-1.7548 5.0255-4.0055z" fill="#ffe422" opacity=".7043"/>
  <path d="m123.67 361.72c4.2042 0.77591 12.787-0.48166 19.123-0.56408 5.7306-0.07456 11.815 0.99352 17.771 1.8181 6.1615 0.85309 6.6293 7.7659 7.2388 9.995 1.0521 3.8485 7.2247 4.7544 11.946 6.1503 7.3914 2.1855 18.124 2.5094 26.02 3.6026 7.2018 0.99713 12.888 3.5298 19.464 5.2643 6.3772 1.682 5.5257 5.5945 4.3494 7.6679-2.2308 3.9321-6.634 2.29-5.173 7.6342 0.63967 2.3398 15.845 3.4785 18.579 3.857l22.897 3.1702 27.06 3.7467c7.3862 1.0226 7.1851 3.659 5.5456 6.5488-1.9781 3.4867-9.0576 2.5822-7.4099 8.6091 0.18755 0.68606 20.747 5.1527 22.587 5.6966 7.4156 2.1926 18.237 2.5251 26.02 3.6025l31.224 4.3231c8.4816 1.1743 15.73 1.679 17.15 6.8708 1.2037 4.403-3.2874 5.3739-2.206 9.3296 1.206 4.4113 9.5533 7.4066 15.798 9.253 2.822 0.83441 5.3955 2.0317 8.0933 3.0476 7.907 2.9774 19.447 3.3348 28.024 4.5223 12.854 1.7797 23.119 3.8903 35.076 7.4258 6.5597 1.9396 2.7184 9.1938 0.76099 11.025-0.13978 0.13079 14.322 3.5802 28.676 7.8243 18.594 5.4978 37.723 10.602 56.311 15.505 7.6916 2.0287 17.611 3.0636 19.076 8.4222 1.201 4.393-0.73417 3.9063-4.94 5.7394-3.1713 1.3822-12.823 0.7974-17.041 0.85228-8.2919 0.10788-13.265-2.2715-20.427-6.04-6.9876-3.6763-11.737-6.2521-19.076-8.4222-7.9291-2.3445-17.433-3.056-25.942-4.2341-9.3592-1.2958-18.15-1.3965-27.06-3.7466-6.1298-1.6168-9.5252-8.3437-11.324-11.203-1.8405-2.9252 2.5816-6.1243 2.0506-8.0665-0.71154-2.6026-21.128-4.21-23.783-4.5775-8.6631-1.1994-17.817-1.1772-26.02-3.6025-9.185-2.7158-19.061-5.7466-27.402-9.575-6.386-2.9312-6.1547-3.2826-7.4718-8.1002-1.1125-4.0692-1.1484-6.0322-2.0348-9.2745-0.8511-3.1131-2.9582-4.2636-8.901-5.0864l-20.816-2.882-19.775-2.7379c-8.7473-1.2111-13.06-2.5524-20.583-4.7768-5.7295-1.6941-10.987-2.7079-15.301-4.6879-5.6512-2.5939-12.196-4.1149-11.713-8.045 0.53341-4.3369 6.0595-3.96 3.1691-8.554-0.83864-1.3329-12.269-2.9834-15.456-3.4247l-20.816-2.882-19.775-2.7379c-7.0773-0.97987-11.607-4.4891-14.99-7.2142-3.0036-2.4191-1.3742-6.0398-0.99403-9.1304 0.58136-4.7267-9.3585-4.2399-15.146-5.951-6.3764-1.8854-14.554-1.8826-20.738-3.5136-7.1896-1.8963-12.734-3.5402-13.872-7.7017-1.0308-3.7704-1.2134-4.286-7.7048-6.2054-6.1909-1.8305-11.256-0.91616-16.73-1.6741-7.9016-1.094-9.6084 0.66526-8.901-5.0864 0.2948-2.3969-0.50812-1.196 5.5147-1.8058z" fill="#ecd637" opacity=".59677"/>
  <path transform="translate(33.502 -23.649)" d="m404 539.98a16.751 13.795 0 1 1 -33.502 0 16.751 13.795 0 1 1 33.502 0z" fill="url(#a)"/>
  <path transform="translate(-123.17 -72.916)" d="m404 539.98a16.751 13.795 0 1 1 -33.502 0 16.751 13.795 0 1 1 33.502 0z" fill="url(#a)"/>
  <path transform="matrix(.70588 0 0 .92857 25.214 -114.16)" d="m404 539.98a16.751 13.795 0 1 1 -33.502 0 16.751 13.795 0 1 1 33.502 0z" fill="url(#a)"/>
  <path transform="translate(140.91 -53.209)" d="m404 539.98a16.751 13.795 0 1 1 -33.502 0 16.751 13.795 0 1 1 33.502 0z" fill="url(#a)"/>
  <path transform="matrix(.70588 0 0 .92857 157.25 -53.069)" d="m404 539.98a16.751 13.795 0 1 1 -33.502 0 16.751 13.795 0 1 1 33.502 0z" fill="url(#a)"/>
  <path transform="matrix(.70588 0 0 .64286 -138.36 63.767)" d="m404 539.98a16.751 13.795 0 1 1 -33.502 0 16.751 13.795 0 1 1 33.502 0z" fill="url(#a)"/>
  <path d="m120.41 433.47 4.2196 1.8602c75.074 33.096 118.65 78.705 202.83 102.93 54.431 15.665 110.46 42.27 162.78 60.085 9.8327 3.3483 19.418 7.741 29.127 11.611 12.499 4.9829 10.702 12.467 15.267 20.861 3.0813 5.6651-12.968 10.277-14.944 11.843-4.5242 3.5854-14.327 4.9665-22.299 5.5289-12.479 0.88022-24.224-3.8355-37.009-7.0995-11.16-2.8492-23.525-10.322-35.251-13.697-10.835-3.1184-27.401-9.0074-39.06-14.147-28.854-12.72-65.585-27.27-94.999-35.736-19.308-5.5568-37.813-20.085-55.001-31.005-13.575-8.6244-30.175-16.374-45.331-23.056-13.285-5.8564-26.919-17.891-38.943-26.383-9.61-6.7869-17.439-22.004-20.043-30.953-2.3912-8.2161-9.2718-13.871-13.362-20.635-2.3341-3.86 1.0735-8.452 2.0217-12.01z" fill="#a95132" opacity=".30645"/>
  <path transform="matrix(1.7071 0 0 1.5823 -413.83 -315.06)" d="m626.69 557.71a34.488 33.502 0 1 1 -68.975 0 34.488 33.502 0 1 1 68.975 0z" fill="url(#b)" opacity=".66129"/>
  <path d="m134.02 405.01 4.3108 1.8129c76.699 32.255 122.28 76.888 207.77 100.41 55.273 15.21 112.59 41.153 165.83 58.479 10.006 3.2565 19.805 7.5388 29.707 11.308 12.749 4.8528 11.245 12.204 16.166 20.428 3.3215 5.5508-12.604 10.126-14.525 11.669-4.3973 3.5327-14.182 4.9179-22.163 5.4939-12.492 0.90169-24.472-3.6912-37.438-6.856-11.318-2.7627-24.032-10.06-35.939-13.337-11.003-3.0278-27.87-8.7577-39.782-13.767-29.479-12.397-66.938-26.567-96.807-34.786-19.607-5.3955-38.769-19.598-56.463-30.264-13.975-8.4235-30.952-15.98-46.436-22.491-13.572-5.7078-27.744-17.479-40.157-25.777-9.9207-6.6321-18.393-21.544-21.368-30.319-2.7316-8.0567-9.8667-13.586-14.245-20.213-2.4987-3.7815 0.73706-8.2987 1.5456-11.794z" fill="#eee4e0" opacity=".04301"/>
 </g>
</svg>
