<?xml version="1.0" encoding="UTF-8"?>
<svg version="1.1" viewBox="0 0 293.07 227.39" xmlns="http://www.w3.org/2000/svg">
 <g transform="translate(-96.976 -345.12)">
  <g transform="matrix(.99754 .070078 -.070078 .99754 32.759 -15.842)">
   <path d="m265.67 373.03c-22.327-4.2942-50.075 7.3985-68.086-9.8722-21.354-13.436-56.147 9.0925-36.702 33.079 14.434-2.8616 46.004-7.7981 55.319 11.727 10.738 32.483-30.042 28.612-47.89 21.492-24.076 10.087 27.828 54.301-8.3387 40.089-17.4-6.8336-29.361-16.593-33.065-33.884-11.225 7.4339-33.405 11.708-19.833 30.032 22.248 3.8291 47.16 5.7021 62.616 25.099 9.476 11.026 12.916 34.416-8.3564 26.418-12.661 0.35902-12.637 35.002-22.802 10.609 0.7297-26.462-22.23-16.074-27.238 1.3768-3.2332 8.3282 9.4715 19.954 18.651 18.732 7.6934 17.681 25.045 33.534 38.801 12.295 22.427-1.035 44.642 9.1281 67.406 4.2478 23.43-10.804 43.977 4.6201 66.587-4.7752 21.718 4.5643 52.278 0.29726 48.581-29.809 4.9417-12.274-14.252-32.913-11.856-9.7478-16.517 23.422-9.4787-24.568-11.577-35.305-6.2595-21.404 19.083-34.445 31.254-48.688 12.425 6.2663 33.699-7.7037 20.624-24.477 3.478-26.918-31.371-6.0974-30.161 11.076-12.036 12.719-36.233 49.913-42.33 15.491-10.301-28.363-38.479 14.821-54.332-13.647-16.459-27.563 16.814-33.544 35.961-34.385 29.145-3.7775 26.592-52.668-4.7317-46.453-19.624-0.51233-18.854 13.998-18.502 29.281z" fill="#c8beb7"/>
   <path d="m217.52 455.1c9.6119 33.733 30.28 28.722 31.82 0l-14.647-9.5964c-4.4451 2.9856-5.3205 5.3763-17.173 9.5964z" fill="#a00" stroke="#000" stroke-linecap="round" stroke-linejoin="round" stroke-width="5"/>
   <g transform="matrix(.81279 0 0 1 44.651 -5)" fill="#241f1c">
    <path transform="matrix(1.2879 0 0 1.2713 92.77 -82.778)" d="m126.02 404.22c0 8.996-7.4623 16.289-16.668 16.289-9.2052 0-16.668-7.2927-16.668-16.289 0-8.996 7.4623-16.289 16.668-16.289 9.2052 0 16.668 7.2927 16.668 16.289z"/>
    <path d="m168.62 429.8c-26.81 16.644-3.7746 33.28 20.011 32.959 23.786-0.3211 32.618-2.7499 45.11-12.025 22.753 16.032 38.128 11.925 54.391 10.077 16.262-1.8484 30.211-24.874 8.7264-30.732" stroke="#000" stroke-linecap="round" stroke-linejoin="round" stroke-width="5"/>
   </g>
   <path d="m185.79 371.21c-2.0203 6.0609-3.2568 13.626-6.0609 18.183-2.8042 4.5567-6.718 6.6566-10.102 8.0812-3.3836 1.4247-5.9129 5.0462-9.0914 0-3.1784-5.0462-5.7427-17.845-2.5312-26.666-0.27782-4.8984 1.8235-11.053 6.9562-12.559 5.2257 0.7091 9.8124 6.2535 15.644 2.8424 5.2747-2.0096 11.302-5.0473 16.697-1.4887 6.328 1.6816 4.7971 10.552 9.6306 12.488 4.9478-2.3766 9.9634-4.6506 15.659-4.3728 7.9688-0.0132 15.926 0.61293 23.894 0.68298 6.3561 0.37035 12.726 1.1854 18.834 3.0377 2.8639-6.8075 0.15733-14.791 4.0158-21.329 2.1003-6.2472 10.351-6.3134 15.145-3.2639 5.6117 5.0538 13.306-5.2243 18.85 0.77234 5.4006 6.7135 2.2496 15.806 4.2732 23.538 0.89921 5.5733-0.32945 13.363-6.7765 14.88-9.8761 1.936-18.538-6.432-21.424-15.244-0.93445-2.373-1.7433-4.7936-2.6986-7.1586" fill="none" stroke="#000" stroke-linecap="round" stroke-linejoin="round" stroke-width="5"/>
   <path transform="translate(89.322 289.91)" d="m127.28 125.75c0 11.995-9.7236 21.718-21.718 21.718-11.995 0-21.718-9.7236-21.718-21.718 0-11.995 9.7236-21.718 21.718-21.718 11.995 0 21.718 9.7236 21.718 21.718z" fill="#fff" stroke="#000" stroke-linecap="round" stroke-linejoin="round" stroke-width="5"/>
   <path transform="translate(168.11 287.89)" d="m127.28 125.75c0 11.995-9.7236 21.718-21.718 21.718-11.995 0-21.718-9.7236-21.718-21.718 0-11.995 9.7236-21.718 21.718-21.718 11.995 0 21.718 9.7236 21.718 21.718z" fill="#fff" stroke="#000" stroke-linecap="round" stroke-linejoin="round" stroke-width="5"/>
   <path d="m233.18 441.04-11.471-8.6508c6.6338-3.3756 13.867-3.7536 21.847-0.3968z" stroke="#000" stroke-linecap="round" stroke-linejoin="round" stroke-width="5"/>
   <path transform="translate(319.31 280.81)" d="m-109.32 137.92c0 7.3716-5.9759 13.347-13.347 13.347-7.3716 0-13.347-5.9759-13.347-13.347 0-7.3716 5.9759-13.347 13.347-13.347 7.3716 0 13.347 5.9759 13.347 13.347z" stroke="#000" stroke-linecap="round" stroke-linejoin="round" stroke-width="5"/>
   <path transform="translate(395.21 279.54)" d="m-109.32 137.92c0 7.3716-5.9759 13.347-13.347 13.347-7.3716 0-13.347-5.9759-13.347-13.347 0-7.3716 5.9759-13.347 13.347-13.347 7.3716 0 13.347 5.9759 13.347 13.347z" stroke="#000" stroke-linecap="round" stroke-linejoin="round" stroke-width="5"/>
   <path d="m313.65 446.78c1.5152 4.5457 3.0304 9.0914 4.5457 13.637 13.3-13.805 26.601-27.611 39.901-41.416-6.1808-4.3729-11.181-21.96 0.8477-19.579 7.3228 2.4957-0.98946 21.369 7.2105 9.8092 3.9587-9.8387 19.437-11.034 17.94 0.92669-4.9194 1.7605-15.593 6.5772-4.0804 8.0674 12.12 3.5921 0.90969 14.568-6.1146 7.8144 5.2427 3.4978 7.7921 20.396-0.9408 13.675-4.0298-9.1831-17.043-4.8485-21.921 1.0255-8.7587 11.105-17.517 22.209-26.276 33.314l8.0812 72.226" fill="none" stroke="#000" stroke-linecap="round" stroke-linejoin="round" stroke-width="5"/>
   <path d="m174.25 474.05c-15.321-8.0812-30.641-16.162-45.962-24.244 1.2609-7.2062 7.6146-23.752-4.8982-16.546-6.8186 3.1966 3.1351 20.383-6.1618 11.14-3.5351-6.9953-19.976-7.7962-14.331 2.3216 5.072 1.5782 15.611 7.554 4.2553 4.9795-14.433-3.0337-7.6983 17.807 3.7677 10.22 9.7678-5.3094-15.278 15.434 2.0768 13.1 8.655-0.66977 4.9719-16.692 14.476-8.7404 12.878 5.4467 25.951 10.441 38.649 16.309 9.5462 5.6888 7.9448 16.974 10.364 26.311 1.9063 9.3069 4.261 18.513 6.35 27.779" fill="none" stroke="#000" stroke-linecap="round" stroke-linejoin="round" stroke-width="5"/>
   <path d="m234.98 451.91 0.50508 12.627" fill="none" stroke="#000" stroke-linecap="round" stroke-linejoin="round" stroke-width="5"/>
   <path d="m317.69 510.42c-6.3976-4.5457-11.186-13.051-19.193-13.637-8.0068-0.58587-17.415 2.5895-22.223 10.607-4.8083 8.0171-4.5773 21.252-0.82943 31.533 0.77672 2.978 2.4626 7.3083-1.4658 3.2878-8.4946-6.2193-16.989-12.439-25.484-18.658 0.33672-3.7039 0.67343-7.4078 1.0102-11.112-3.0305-0.84179-6.0609-1.6836-9.0914-2.5254-6.4841 3.761-0.70773 17.88-11.288 13.795-9.5138 2.255-4.9747 16.233 4.0429 14.14-9.7319 3.1631-3.7014 18.614 5.0137 11.062 3.4839-5.787 9.2781-12.395 14.961-4.3919 7.6794 5.3024 15.054 11.372 23.57 15.375l19.764 6.588c1.66-7.4705 0.35357-16.693 6.9821-22.034 0.36637-0.39968 0.73275-0.79936 1.0991-1.199" fill="none" stroke="#000" stroke-linecap="round" stroke-linejoin="round" stroke-width="5"/>
   <path d="m178.29 521.53c-5.0508-1.0102-10.102-2.0203-15.152-3.0305-5.1285 3.6484-9.6014 8.5312-10.793 14.874-0.13634 4.4349 0.0693 13.292-4.3269 5.6038-4.694-5.6731-9.4672-11.28-14.174-16.942 6.1686-4.917 3.2411-16.429-5.419-13.715-8.6176-1.7074 0.52686 15.822-6.0426 10.371-5.6487-2.3402-14.359 2.5417-12.833 9.157 0.32484 6.6149 13.197-0.0587 9.9569 7.0523-10.114-1.7175-4.3535 15.523 2.5099 8.3968 4.0948-5.083 9.7037-2.7436 11.748 2.621 5.4079 7.5389 10.234 15.83 18.091 21.136l7.242 5.9934c6.4543-3.8158 7.5227-13.784 13.545-16.509 6.5619 0.85351 12.67 3.895 19.237 4.9693 8.8445 1.6865 17.911 1.4538 26.88 1.78 9.9775 0.2088 19.731-2.1335 29.646-2.7524 5.8871-0.68081 10.621-4.5634 15.748-7.1863" fill="none" stroke="#000" stroke-linecap="round" stroke-linejoin="round" stroke-width="5"/>
   <path d="m299.51 555.87c10.388 4.9239 22.816 6.4398 33.772 2.5046 7.4784-2.623 13.505-9.0404 15.299-16.806 0.54537-2.9419 2.3504-5.5024 2.6493-8.5411 1.1319-7.4141 0.54378-15.307-2.6178-22.174-1.3959-3.185-4.7201-6.4468-8.4784-5.1592-4.5769 0.68974 0.51857 4.5148 0.88074 7.0296 2.0679 4.5983 3.7112 10.5 0.56626 15.014-1.8224 2.5648-4.786 4.0162-7.726 4.8996" fill="none" stroke="#000" stroke-linecap="round" stroke-linejoin="round" stroke-width="5"/>
   <path d="m270 383.79c-9.052 1.1388-20.199 5.9769-21.786 16.071" fill="none" stroke="#000" stroke-linecap="round" stroke-linejoin="round" stroke-width="3"/>
   <path d="m262.86 379.15c-8.3632 0.74883-18.811 5.3472-19.286 15" fill="none" stroke="#000" stroke-linecap="round" stroke-linejoin="round" stroke-width="3"/>
   <path d="m197.86 385.58c9.052 1.1388 20.199 5.9769 21.786 16.071" fill="none" stroke="#000" stroke-linecap="round" stroke-linejoin="round" stroke-width="3"/>
   <path d="m205 380.93c8.3632 0.74883 18.811 5.3472 19.286 15" fill="none" stroke="#000" stroke-linecap="round" stroke-linejoin="round" stroke-width="3"/>
  </g>
 </g>
</svg>
