<?xml version="1.0" encoding="UTF-8"?>
<svg version="1.1" viewBox="0 0 307.71346 229.77955" xmlns="http://www.w3.org/2000/svg">
 <g transform="matrix(.99604 .088936 -.088936 .99604 -68.233 -557.66)">
  <path transform="translate(0,540.36)" d="m251.72 52.375c0.35739-0.50787-11.007-31.712-53.246-45.746-18.674 54.979-70.731 141.09-25.942 185.74 43.559 43.423 156.55 4.6441 181.66-2.25 25.102-6.8941 80.24 34.347 84.812 9.875 4.3813-27.164-53.652-38.229-59.812-45.5-6.1601-7.2708-7.3834-47.892-31.518-85.287-16.157-28.847-43.211-58.737-71.801-70.306z" fill="#ff3038" stroke="#670000" stroke-linecap="round" stroke-linejoin="round" stroke-width="8"/>
  <g transform="matrix(-.94391 .33021 .33021 .94391 288.22 -56.017)" fill="none" stroke="#670000" stroke-linecap="round" stroke-width="8">
   <path transform="translate(0,540.36)" d="m315 86c15.19-15.544 32.25-28.296 58-28"/>
   <path d="m322.41 641.61c18.615-11.221 38.33-19.271 63.179-12.504"/>
  </g>
  <path d="m212.23 636.46c8.3098-33.866 20.568-16.406 32.527-2.8284" fill="#ff3038" stroke="#670000" stroke-linecap="round" stroke-linejoin="round" stroke-width="8"/>
  <path d="m298.8 627.4c-17.252-30.303-24.269-10.157-32.061 6.1725" fill="#ff3038" stroke="#670000" stroke-linecap="round" stroke-linejoin="round" stroke-width="8"/>
  <path transform="translate(0,540.36)" d="m347 82.562c-28.022 0.03162-20.415 21.855 10.562 23.969 0 0 3.0399-0.92513 6.875-2.4375-2.3682-6.7712-5.2734-13.827-8.8438-20.938-3.15-0.389-6.04-0.596-8.59-0.594zm12.219 27.719c-24.235 0.0273-17.666 18.922 9.125 20.75 0 0 1.4368-0.41043 3.5-1.1562-1.3893-5.7599-3.0365-12.189-5.1875-19.062-2.7282-0.33804-5.2309-0.53374-7.4375-0.53125zm10.188 22.844c-20.848 0.0235-15.172 16.271 7.875 17.844 0 0 0.031 9e-5 0.0313 0-1.5017-3.9071-2.8544-10.075-4.6562-17.719-1.1382-0.0818-2.2389-0.12614-3.25-0.125zm18.438 26.125-10.75 32.875c4.868 1.383 9.9269 3.1509 14.969 5l5.75-33.875c-3.6614-1.4537-7.0746-2.7884-9.9688-4zm20.875 8.5312-5.22 33.61c4.0413 1.484 7.9626 2.8688 11.625 3.9688l11.85-27.47c-5.3203-3.8913-11.777-7.2175-18.25-10.094z" fill="#b00000"/>
  <path d="m330.41 648.49c18.615-11.221 38.33-19.271 63.179-12.504" fill="none" stroke="#670000" stroke-linecap="round" stroke-width="8"/>
  <path d="m323 633.24c15.193-15.544 32.247-28.296 58-28" fill="none" stroke="#670000" stroke-linecap="round" stroke-width="8"/>
  <path d="m197.71 598.25c-3.907-6.9005-0.46862-21.29 6.364-22.627 6.8326-1.3374 32.121 6.9475 29.698 15.556-2.4225 8.6088-32.155 13.972-36.062 7.0711z" fill="#b00000"/>
  <path transform="translate(0,540.36)" d="m268.7 53.795c-3.1372-6.9164 3.3922-24.655 9.8995-25.456 6.5073-0.80108 27.526 11.63 24.749 19.799-2.7775 8.1692-31.511 12.573-34.648 5.6569z" fill="#b00000"/>
  <path d="m270.22 662.82c-9.6454 7.4874-15.992 5.0779-21.92 1.4142" fill="#ff3038" stroke="#670000" stroke-linecap="round" stroke-linejoin="round" stroke-width="8"/>
  <path transform="translate(0,540.36)" d="m251.72 52.375c0.35739-0.50787-11.007-31.712-53.246-45.746-18.674 54.979-70.731 141.09-25.942 185.74 43.559 43.423 156.55 4.6441 181.66-2.25 25.102-6.8941 80.24 34.347 84.812 9.875 4.3813-27.164-53.652-38.229-59.812-45.5-6.1601-7.2708-7.3834-47.892-31.518-85.287-16.157-28.847-43.211-58.737-71.801-70.306z" fill="none" stroke="#670000" stroke-linecap="round" stroke-linejoin="round" stroke-width="8"/>
 </g>
</svg>
