<?xml version='1.0' encoding='utf-8'?>
<svg xmlns="http://www.w3.org/2000/svg" width="210mm" height="297mm" style="shape-rendering:geometricPrecision; text-rendering:geometricPrecision; image-rendering:optimizeQuality; fill-rule:evenodd; clip-rule:evenodd" viewBox="0 0 210 297"> <defs> <style type="text/css">  .fil4 {fill:none} .fil0 {fill:#0093DD} .fil2 {fill:#DA251D} .fil5 {fill:black} .fil6 {fill:black;fill-rule:nonzero} .fil3 {fill:url(#id0)} .fil1 {fill:url(#id1)} .fil7 {fill:url(#id2);fill-rule:nonzero}  </style> <linearGradient id="id0" gradientUnits="userSpaceOnUse" x1="101.343" y1="220.389" x2="101.343" y2="98.313"> <stop offset="0" style="stop-color:#F5C491"/> <stop offset="1" style="stop-color:#EE9A85"/> </linearGradient> <radialGradient id="id1" gradientUnits="userSpaceOnUse" cx="153.029" cy="149.96" r="58.1048" fx="153.029" fy="149.96"> <stop offset="0" style="stop-color:#EF9A48"/> <stop offset="1" style="stop-color:#8F5444"/> </radialGradient> <linearGradient id="id2" gradientUnits="userSpaceOnUse" x1="108.633" y1="204.134" x2="108.633" y2="218.644"> <stop offset="0" style="stop-color:#F5C491"/> <stop offset="1" style="stop-color:#957F66"/> </linearGradient> </defs> <g id="Warstwa_x0020_1"> <metadata id="CorelCorpID_0Corel-Layer"/> <g id="_90871728"> <path id="_89960504" class="fil0" d="M46.032 87.8608l4.1357 18.1509 34.7987 9.7847c0.4306,-0.0851 3.8846,-4.4297 5.1292,-8.3041 3.0052,-9.3561 -1.8559,-19.4141 -10.9502,-24.2678 -0.054,-0.0289 -0.1068,-0.061 -0.1606,-0.0911 -1.2821,-0.7196 -2.6707,-1.4767 -4.2743,-1.8296 -6.7317,-1.4815 -16.9564,-2.7004 -25.0849,3.1732 -1.5105,1.0914 -2.7843,1.9926 -3.5936,3.3838z"/> <path id="_89960432" class="fil1" d="M127.587 199.176l-57.1553 -6.7328 22.4796 -44.4704c1.6021,-5.2844 3.3267,-10.4739 6.4954,-14.54 5.0201,-15.806 19.7658,-23.2935 32.3525,-27.5511 15.1908,-5.1386 30.7601,-4.4356 38.569,-2.7208 6.1219,1.3443 14.1983,3.9408 19.1246,9.2649 5.5833,6.0339 7.6467,15.3128 7.8423,25.5116 0.2109,10.9881 -3.6516,27.7445 -12.1194,38.7116 -3.9799,4.6515 -7.9761,8.1645 -11.9009,10.7788 -12.5619,8.3675 -24.393,7.5291 -32.622,5.3532 -7.1082,1.5884 -4.3211,0.5344 -13.0658,6.395z"/> <path id="_89960360" class="fil2" d="M32.9804 99.9765l21.9905 2.0308c-2.8597,-5.6436 -5.9837,-10.3586 -8.9389,-14.1465 -0.3685,-0.4724 -0.7345,-0.9303 -1.0967,-1.3738 -2.3853,-2.9192 -4.6205,-5.2145 -6.4662,-6.8865 -2.134,-1.9334 -4.5699,-2.0068 -5.8176,-1.8875 -2.7265,0.2608 -9.2843,8.3382 -1.8683,19.3921 0.6284,0.9366 1.3572,1.8949 2.1972,2.8714z"/> <path id="_89960288" class="fil3" d="M173.274 187.428c-14.2784,7.8796 -22.318,8.2175 -33.5404,5.2694 -1.0624,0.5578 -3.6291,0.0314 -5.2387,1.1684 -1.6845,1.1899 -3.4377,2.5001 -4.5882,3.5791 -0.3509,0.3291 1.6937,0.4384 1.6742,1.0683 -27.3681,-10.4051 -52.638,-21.3455 -41.64,-41.5416 1.2021,-3.0665 2.2091,-6.0715 2.9696,-8.9986 3.272,-12.5941 1.9819,-23.7484 -7.9445,-32.1767 -3.3088,-2.8094 -7.5772,-5.3161 -12.9562,-7.4721 -3.697,-1.5539 -7.074,-2.8784 -10.1589,-3.9991 -2.4767,-0.8997 -4.7652,-1.668 -6.8804,-2.3179 -12.0235,-3.6943 -18.4482,-3.5667 -21.9905,-2.0308 -4.0147,1.7407 -4.3274,5.2903 -4.8925,7.1349 -0.943,3.0776 -2.2109,18.8088 13.3043,20.4957 0.2463,0.0267 0.4968,0.0502 0.7516,0.0697l0 0c-0.2537,0.5182 -2.8452,-0.5962 -2.6511,1.014 0.1186,0.984 -0.3328,1.5471 0.9626,2.4011 2.0992,1.4671 4.4111,2.5252 6.7658,3.3423 3.3447,1.1605 7.33,0.7713 10.3635,1.4426 1.7204,0.3807 3.3409,1.2672 4.1352,2.2909 2.0156,2.5972 2.1682,5.8297 1.8991,9.8284 -0.715,10.6253 -7.6267,25.5588 -14.6843,40.0714 -2.3736,4.0034 -3.8122,7.2237 -4.5484,9.826 -0.9448,3.3401 -4.3579,8.1328 -3.4823,9.7872 0.756,1.4286 2.7157,1.0001 5.0216,1.0605 2.4548,0.0644 5.2836,0.5793 6.8245,0.9333 8.261,1.898 19.1001,8.42 25.9985,9.3973 9.2961,1.3169 16.7017,-2.9742 23.9673,-3.2835 6.5486,-0.2788 13.7854,3.4526 19.475,2.855 6.3168,-0.6634 11.9772,-2.3905 17.8492,-3.9162 9.5835,-2.49 19.5654,-3.555 31.9859,-5.464 1.4022,-0.4749 4.6528,-1.7951 4.7045,-2.725 0.0786,-1.4122 -2.2356,-1.2308 -2.6335,-2.6874 -0.8739,-3.1991 -1.2686,-8.5983 -1.2485,-12.0143 0.0092,-1.5551 0.3978,-3.9008 0.426,-4.4083z"/> <ellipse id="_89940672" class="fil4" cx="49.4114" cy="112.561" rx="2.48127" ry="2.3305"/> <path id="_89940600" class="fil0" d="M49.8621 111.568c0.6992,0 1.2701,0.5186 1.2701,1.1549 0,0.6365 -0.5709,1.1551 -1.2701,1.1551 -0.1236,0 -0.243,-0.0166 -0.3561,-0.0468 0.1251,-0.239 0.0307,-0.6404 -0.0736,-0.8961 -0.1109,-0.2717 -0.4254,-0.5462 -0.7491,-0.641 0.1879,-0.425 0.6461,-0.7261 1.1788,-0.7261z"/> <path id="_89940528" class="fil4" d="M74.7105 81.3038c-0.7084,0.6654 -1.3924,1.3488 -2.0512,2.0502 -4.1856,4.456 -7.3594,9.6461 -9.3788,15.6732 -0.5692,1.6988 -1.0467,3.464 -1.4292,5.298"/> <path id="_89940456" class="fil4" d="M72.0102 108.324c0.6336,-1.4623 1.2365,-2.9313 1.8043,-4.4078 2.2075,-5.7401 3.8842,-11.5945 4.7765,-17.6176 0.1555,-1.05 0.2874,-2.1051 0.3938,-3.1655"/> <ellipse id="_89940384" class="fil5" cx="49.4114" cy="112.561" rx="2.48127" ry="2.3305"/> <path id="_89940312" class="fil0" d="M49.8621 111.568c0.6992,0 1.2701,0.5186 1.2701,1.1549 0,0.6365 -0.5709,1.1551 -1.2701,1.1551 -0.1236,0 -0.243,-0.0166 -0.3561,-0.0468 0.1251,-0.239 0.0307,-0.6404 -0.0736,-0.8961 -0.1109,-0.2717 -0.4254,-0.5462 -0.7491,-0.641 0.1879,-0.425 0.6461,-0.7261 1.1788,-0.7261z"/> <path id="_89940240" class="fil2" d="M74.7105 81.3038l4.2743 1.8296c-0.1064,1.0604 -0.2383,2.1155 -0.3938,3.1655 -0.8923,6.0231 -2.569,11.8775 -4.7765,17.6176 -0.5678,1.4765 -1.1707,2.9455 -1.8043,4.4078l-10.1589 -3.9991c0.3825,-1.834 0.86,-3.5992 1.4292,-5.298 2.0194,-6.0271 5.1932,-11.2172 9.3788,-15.6732 0.6588,-0.7014 1.3428,-1.3848 2.0512,-2.0502z"/> <path id="_89940024" class="fil6" d="M73.2808 83.8403c-2.0554,2.1881 -3.8632,4.5579 -5.4056,7.1215 -1.5405,2.5605 -2.8164,5.3171 -3.8098,8.2822 -0.1201,0.3585 -0.2403,0.717 -1.0252,0.5002 -0.7849,-0.2168 -0.6647,-0.5753 -0.5446,-0.9338 1.0259,-3.0619 2.3468,-5.9142 3.9443,-8.5694 1.5956,-2.652 3.4678,-5.1057 5.5978,-7.3733 0.2672,-0.2844 0.5344,-0.5689 1.1559,-0.0826 0.6216,0.4863 0.3543,0.7708 0.0872,1.0552z"/> <path id="_89939952" class="fil6" d="M73.0424 103.67c1.0931,-2.8425 2.0567,-5.7194 2.8591,-8.6382 0.8011,-2.9144 1.4382,-5.8571 1.879,-8.8329 0.055,-0.3716 0.11,-0.7432 0.9205,-0.6436 0.8105,0.0996 0.7555,0.4712 0.7005,0.8428 -0.4514,3.047 -1.0992,6.0435 -1.911,8.9969 -0.8107,2.9489 -1.7897,5.8697 -2.9039,8.7672 -0.136,0.3537 -0.272,0.7075 -1.0441,0.4614 -0.7721,-0.2461 -0.6361,-0.5999 -0.5001,-0.9536z"/> <path id="_89939880" class="fil6" d="M89.3106 107.281c1.431,-4.4548 1.0093,-9.0777 -0.8417,-13.18 -1.896,-4.2019 -5.2931,-7.8578 -9.7367,-10.2294 -0.0079,-0.0042 -0.0572,-0.0334 -0.1192,-0.0693l-0.0033 0c-0.0588,-0.0341 -0.0083,-0.0067 -0.0509,-0.0306 -0.6194,-0.3476 -1.2651,-0.7047 -1.9559,-1.0201 -0.6577,-0.3005 -1.3489,-0.5576 -2.0814,-0.7187 -3.3042,-0.7272 -7.463,-1.3901 -11.7816,-1.1511 -4.2646,0.236 -8.6931,1.357 -12.605,4.1837 -0.3217,0.2324 -0.6434,0.4649 -1.1527,-0.124 -0.5094,-0.5889 -0.1877,-0.8214 0.134,-1.0538 4.2162,-3.0466 8.9648,-4.2534 13.5276,-4.5059 4.5085,-0.2495 8.8284,0.4378 12.2558,1.1921 0.8706,0.1915 1.676,0.4897 2.4338,0.8359 0.725,0.3311 1.4148,0.7126 2.0774,1.0845 0.0855,0.0479 0.0603,0.0329 0.0768,0.0424l-0.0033 0c0.0021,0.0012 0.0013,0.0009 0.0744,0.0399 4.7541,2.5374 8.3903,6.4529 10.4223,10.956 1.988,4.4061 2.4394,9.3759 0.8995,14.1702 -0.1155,0.3597 -0.2311,0.7195 -1.016,0.5086 -0.7849,-0.2109 -0.6693,-0.5707 -0.5539,-0.9304z"/> <path id="_89813672" class="fil6" d="M51.6556 127.732c-1.8289,0.3497 -3.5056,0.5731 -5.0411,0.6843 -1.6413,0.1189 -3.151,0.1168 -4.5379,0.0103 -1.354,-0.1041 -2.6073,-0.3126 -3.7665,-0.6096 -5.4533,-1.3974 -8.4437,-4.7235 -10.0094,-8.3605 -1.5395,-3.5764 -1.6822,-7.4375 -1.4451,-10.0166 0.1002,-1.091 0.2757,-1.9807 0.4443,-2.5308 0.0757,-0.2473 0.1481,-0.5321 0.2262,-0.84 0.5284,-2.0814 1.2998,-5.1197 5.1052,-6.7696 1.8921,-0.8204 4.5197,-1.267 8.2215,-1.0191 3.2394,0.217 7.3445,0.969 12.5631,2.4769 -1.0873,-2.0461 -2.2053,-3.9605 -3.3312,-5.7424 -1.5792,-2.4992 -3.1732,-4.7392 -4.719,-6.7207 -0.1681,-0.2154 -0.3498,-0.4454 -0.5443,-0.6889 -0.1361,-0.1705 -0.3175,-0.3944 -0.5429,-0.6703 -1.1152,-1.3649 -2.1876,-2.5824 -3.1951,-3.6555 -1.15,-1.2246 -2.2252,-2.2742 -3.1909,-3.1489 -0.9481,-0.859 -1.959,-1.3039 -2.8696,-1.5202 -0.9136,-0.217 -1.7327,-0.2066 -2.2881,-0.1535 -0.1684,0.016 -0.3866,0.0974 -0.6401,0.2396 -0.9058,0.5083 -1.9881,1.6572 -2.7922,3.3297 -0.8255,1.7167 -1.3329,3.9579 -1.0315,6.5929 0.2748,2.4023 1.2224,5.1326 3.2106,8.0962 0.2144,0.3196 0.4289,0.6392 -0.2696,1.0288 -0.6984,0.3896 -0.9128,0.07 -1.1272,-0.2496 -2.1264,-3.1696 -3.1428,-6.1152 -3.4412,-8.723 -0.3345,-2.925 0.235,-5.4259 1.1597,-7.3489 0.9459,-1.9673 2.2877,-3.3573 3.4394,-4.0035 0.4601,-0.2581 0.9119,-0.4109 1.3255,-0.4504 0.6921,-0.0662 1.715,-0.0786 2.8647,0.1945 1.1526,0.2738 2.4271,0.8326 3.6128,1.9068 0.9955,0.9018 2.1016,1.9811 3.2808,3.2369 1.047,1.1152 2.145,2.3603 3.2655,3.7317 0.1367,0.1673 0.3198,0.3946 0.5493,0.6819 0.171,0.2141 0.3568,0.4497 0.5571,0.7065 1.5762,2.0204 3.1988,4.3001 4.8024,6.8379 1.3819,2.187 2.7505,4.5663 4.0646,7.1369 0.9856,0.3057 1.9831,0.6279 2.9921,0.9675 1.1754,0.3955 2.3737,0.8147 3.5949,1.2584 1.5427,0.5604 3.1657,1.1747 4.8724,1.8459 1.641,0.6453 3.4135,1.3674 5.3249,2.1708l-0.0128 -0.0058c2.7287,1.0937 5.177,2.2771 7.3634,3.5437l0.0032 0c2.1924,1.2701 4.1263,2.6277 5.8204,4.066 5.0993,4.3297 7.9812,9.3631 9.1683,14.9335 1.1783,5.5288 0.6776,11.5696 -0.9836,17.964 -0.3845,1.4801 -0.8308,2.9779 -1.332,4.4909 -0.5006,1.5116 -1.0574,3.0414 -1.6632,4.5868 -0.0009,0.0023 -0.0373,0.0798 -0.0385,0.082 -5.288,9.7106 -1.8392,17.2102 6.2309,23.54 8.2732,6.4893 21.3679,11.7975 34.9894,16.9762 0.3786,0.1439 0.7572,0.2879 0.4433,0.9793 -0.3139,0.6914 -0.6926,0.5474 -1.0712,0.4035 -13.7461,-5.2261 -26.9709,-10.5909 -35.425,-17.2222 -8.6451,-6.7808 -12.3333,-14.8366 -6.6585,-25.3 0.5906,-1.5084 1.1338,-3.0023 1.623,-4.4792 0.4928,-1.4876 0.9305,-2.9563 1.3064,-4.4031 1.6106,-6.1996 2.101,-12.0334 0.9706,-17.337 -1.1213,-5.2621 -3.848,-10.0205 -8.6748,-14.1189 -1.6148,-1.371 -3.4698,-2.6717 -5.5833,-3.8962l0.0033 0c-2.1197,-1.2279 -4.4955,-2.3761 -7.1456,-3.4383l-0.0128 -0.0058c-1.7855,-0.7505 -3.5502,-1.4679 -5.2929,-2.1532 -1.6772,-0.6596 -3.2855,-1.2682 -4.8276,-1.8283 -1.2553,-0.456 -2.4399,-0.8711 -3.5564,-1.2468 -1.0704,-0.3602 -2.0774,-0.6859 -3.0231,-0.9791 -0.2819,0.0515 -0.4444,-0.0338 -0.5604,-0.1722 -5.7832,-1.7597 -10.2344,-2.6136 -13.6726,-2.8438 -3.4018,-0.2278 -5.758,0.1573 -7.408,0.8727 -3.0883,1.339 -3.7529,3.9567 -4.2081,5.75 -0.0838,0.3303 -0.1615,0.6358 -0.2455,0.9102 -0.138,0.4506 -0.2866,1.2313 -0.3802,2.2496 -0.2227,2.4241 -0.0947,6.0394 1.3299,9.3486 1.3985,3.2487 4.0662,6.2186 8.9264,7.4641 1.0326,0.2645 2.182,0.4528 3.459,0.551 1.3039,0.1002 2.7261,0.1019 4.2753,-0.0103 1.5136,-0.1097 3.1239,-0.3217 4.8361,-0.6491 0.4013,-0.0767 0.8027,-0.1535 0.9692,0.5789 0.1666,0.7324 -0.2348,0.8092 -0.6361,0.8859z"/> <path id="_38325864" class="fil6" d="M40.045 131.747c-0.483,-0.2255 -0.4762,-0.5035 -0.3833,-0.7914 0.0058,-0.0532 0.0178,-0.1034 0.0376,-0.1474 0.0435,-0.0969 0.0898,-0.1812 0.1381,-0.2544 0.1286,-0.2709 0.2947,-0.5025 0.7999,-0.3775 0.0725,0.0139 0.1464,0.0362 0.2221,0.0665l-0.0417 -0.0147c0.1312,0.045 0.2352,0.0942 0.3165,0.1465 0.2366,0.1401 0.3052,0.2916 0.297,0.4483 0.8669,0.5711 1.7685,1.0745 2.6924,1.5223 1.1043,0.5352 2.24,0.9917 3.3859,1.3893 1.8378,0.6377 3.9629,0.7818 5.9898,0.9192 1.4899,0.101 2.9291,0.1987 4.2775,0.497 0.953,0.2109 1.8732,0.5596 2.6593,0.9951 0.803,0.445 1.4868,0.9916 1.9501,1.5888 1.0912,1.4061 1.6763,2.9715 1.9504,4.7167 0.2674,1.7025 0.2393,3.5535 0.1024,5.5892 -0.3627,5.3894 -2.2876,11.8475 -5.0117,18.7861 -2.6991,6.8748 -6.2038,14.2616 -9.7463,21.5461 -0.0004,0.001 -0.025,0.0518 -0.0256,0.0527 -1.1738,1.9798 -2.1153,3.7634 -2.853,5.371 -0.7372,1.6065 -1.2692,3.0276 -1.6249,4.2851 -0.3617,1.2791 -1.0518,2.725 -1.7405,4.1381 6.431,0.5553 12.4423,1.9438 18.3803,3.315 6.1567,1.4217 12.2344,2.8254 18.6339,3.2397 3.8913,0.2519 7.7662,-0.3917 11.6632,-1.039 3.1527,-0.5237 6.3202,-1.0501 9.5363,-1.1267 3.2441,-0.0774 6.5979,1.2552 9.9627,2.5921 3.2848,1.3052 6.5811,2.6149 9.6167,2.508 9.839,-0.3464 19.5426,-2.6275 29.2805,-4.9166 7.4169,-1.7433 14.8539,-3.4916 22.4148,-4.4072 -0.2249,-1.1653 -0.4056,-2.4748 -0.5445,-3.8116 -0.2494,-2.4018 -0.3636,-4.8739 -0.3526,-6.7393 0.0021,-0.3749 0.0043,-0.7499 0.8245,-0.747 0.8201,0.0029 0.8179,0.3779 0.8157,0.7528 -0.0108,1.853 0.0991,4.2753 0.3397,6.5929 0.2012,1.9357 0.4938,3.8111 0.8833,5.2369 0.1053,0.3857 0.5804,0.6257 1.0274,0.8515 0.8784,0.4436 1.6983,0.8579 1.6316,2.0556l0 -0.0029c-0.0365,0.6588 -0.7276,1.2823 -1.6588,1.8217 -1.14,0.6603 -2.7101,1.2753 -3.5839,1.5712 -0.0067,0.0022 -0.1403,0.0342 -0.1474,0.0352 -2.9641,0.4555 -5.9889,0.8906 -8.8906,1.3077 -8.4665,1.2172 -15.8516,2.2791 -23.0088,4.1387 -1.1635,0.3023 -2.0919,0.5505 -3.0142,0.7972 -4.859,1.2992 -9.6753,2.5871 -14.9631,3.1424 -3.039,0.3192 -6.394,-0.5083 -9.8574,-1.3624 -3.233,-0.7973 -6.5652,-1.6191 -9.6753,-1.4867 -2.7704,0.1179 -5.5994,0.8424 -8.5538,1.5988 -4.7214,1.209 -9.7535,2.4974 -15.5737,1.673 -3.7265,-0.5279 -8.4578,-2.5744 -13.3361,-4.6846 -4.3731,-1.8915 -8.8674,-3.8356 -12.7359,-4.7244 -0.8617,-0.1979 -2.1364,-0.4475 -3.52,-0.6367 -1.0229,-0.1398 -2.1074,-0.2465 -3.1284,-0.2732 -0.4742,-0.0124 -0.9381,-0.0033 -1.3784,0.0053 -1.9583,0.0382 -3.5322,0.0691 -4.3576,-1.4906 -0.6994,-1.3215 0.4398,-3.6557 1.6443,-6.1237 0.7041,-1.4427 1.4327,-2.9354 1.7836,-4.1762 0.3803,-1.3446 0.9359,-2.8352 1.6953,-4.4901 0.7589,-1.6538 1.7237,-3.4824 2.9235,-5.5058l-0.0256 0.0527c3.5149,-7.2279 6.9952,-14.5646 9.6949,-21.4407 2.6747,-6.8126 4.5634,-13.1342 4.9157,-18.3699 0.132,-1.9629 0.1623,-3.7279 -0.0832,-5.2904 -0.2386,-1.5197 -0.7379,-2.8696 -1.6621,-4.0605 -0.3269,-0.4214 -0.8432,-0.8258 -1.4695,-1.1728 -0.6575,-0.3642 -1.4162,-0.6535 -2.1917,-0.8251 -1.1623,-0.2571 -2.5607,-0.3521 -4.0083,-0.4502 -2.1326,-0.1445 -4.3686,-0.2962 -6.4512,-1.0188 -1.2087,-0.4194 -2.4066,-0.9009 -3.5716,-1.4655 -1.1429,-0.5541 -2.2552,-1.1882 -3.3162,-1.9224z"/> <path id="_38325792" class="fil7" d="M42.7331 203.671c-0.7956,1.6715 -1.3929,3.1171 -1.0924,3.6849 0.3649,0.6895 1.4731,0.6679 2.852,0.641 0.4618,-0.0091 0.9482,-0.0186 1.4553,-0.0053 1.0782,0.0282 2.2305,0.1418 3.3206,0.2908 1.4446,0.1975 2.7779,0.4587 3.68,0.6659 4.0198,0.9235 8.5901,2.9005 13.0371,4.824 4.7745,2.0653 9.405,4.0682 12.8878,4.5616 5.4632,0.7739 10.3224,-0.4703 14.8818,-1.6378 3.0566,-0.7826 5.9837,-1.5322 8.9253,-1.6574 3.3482,-0.1425 6.8099,0.7112 10.1687,1.5395 3.3117,0.8167 6.52,1.6079 9.2485,1.3214 5.1689,-0.5428 9.9105,-1.8107 14.6941,-3.0898 1.0845,-0.29 2.1675,-0.5797 3.0271,-0.803 7.2227,-1.8766 14.6669,-2.947 23.2008,-4.1739 2.7341,-0.393 5.5843,-0.8031 8.7905,-1.2954 0.8196,-0.2815 2.2139,-0.8307 3.2101,-1.4077 0.5112,-0.2961 0.8852,-0.5417 0.8899,-0.6265l0 -0.0029c0.0147,-0.2655 -0.3688,-0.4593 -0.7796,-0.6668 -0.7517,-0.3797 -1.5503,-0.783 -1.8283,-1.8009 -0.016,-0.0586 -0.0322,-0.1182 -0.0478,-0.1782 -7.5337,0.901 -14.979,2.6512 -22.4042,4.3965 -9.8153,2.3073 -19.5962,4.6065 -29.5675,4.9576 -3.3464,0.1178 -6.7893,-1.2501 -10.2203,-2.6134 -3.2229,-1.2805 -6.4352,-2.5568 -9.3767,-2.4867 -3.1412,0.0749 -6.2435,0.5904 -9.3313,1.1033 -3.9948,0.6636 -7.9669,1.3233 -11.9972,1.0624 -6.4866,-0.42 -12.6402,-1.8412 -18.8741,-3.2807 -6.0431,-1.3956 -12.163,-2.8089 -18.7502,-3.3225z"/> <path id="_38325744" class="fil6" d="M98.6214 133.225c2.5626,-8.0689 7.6036,-14.0115 13.6079,-18.4783 5.9729,-4.4435 12.8861,-7.4161 19.2476,-9.5679 6.6588,-2.2524 13.3781,-3.3961 19.4954,-3.8276 8.024,-0.566 15.0452,0.0924 19.5445,1.0804 3.1073,0.6822 6.7134,1.6836 10.1741,3.1927 3.4921,1.5228 6.8377,3.5639 9.3862,6.3183 2.875,3.107 4.8399,7.0355 6.1081,11.4899 1.2576,4.4169 1.831,9.3444 1.9296,14.4934 0.1149,5.9883 -0.9656,13.6674 -3.3257,21.206 -2.0211,6.456 -4.9844,12.8194 -8.9442,17.948 -0.0002,0.0003 -0.0254,0.029 -0.0256,0.0293 -2.0147,2.3546 -4.0323,4.4202 -6.0417,6.2265 -2.0267,1.8221 -4.0365,3.3778 -6.0194,4.6987 -8.685,5.7852 -17.038,7.2613 -24.1411,6.9217 -0.8842,-0.0422 -1.7488,-0.1128 -2.592,-0.2067 -5.9018,-0.6572 -10.7524,-2.4599 -13.9549,-3.7465 -1.7133,-0.6883 -3.3224,-1.7878 -4.7825,-3.2162 -1.452,-1.4205 -2.7626,-3.1744 -3.8851,-5.1764 -0.1241,-0.0086 -0.252,-0.0577 -0.3801,-0.1071 -9.1404,-3.53 -15.5367,-7.7513 -19.4234,-12.6044 -3.9452,-4.9261 -5.3119,-10.48 -4.3414,-16.6021 0.0587,-0.3703 0.1174,-0.7407 0.8557,-0.6235 0.7383,0.1172 0.6796,0.4876 0.6209,0.8579 -0.9024,5.6928 0.3664,10.8547 4.0308,15.4301 3.5586,4.4436 9.3703,8.3557 17.6357,11.689 -1.2837,-2.7605 -2.2337,-5.8866 -2.7517,-9.2005 -1.0445,-6.6822 -0.3404,-14.1493 2.9179,-20.9323 1.7806,-3.7068 4.3217,-7.2086 7.754,-10.2656 2.4969,-17.4191 11.0726,-27.5554 25.7267,-30.4083 0.368,-0.0716 0.7361,-0.1433 0.8767,0.5921 0.1406,0.7354 -0.2275,0.8071 -0.5955,0.8787 -13.5479,2.6375 -21.6481,11.8736 -24.3012,27.707 6.2828,-3.9478 11.9709,-5.6396 16.8139,-6.0919 6.4535,-0.6028 11.4189,1.003 14.3162,2.4183 0.026,-0.0088 0.0525,-0.0171 0.0788,-0.0256 5.0344,-1.6326 9.9075,-2.1717 14.0627,-1.1329 3.7793,0.9447 6.9513,3.1781 9.1043,7.0528 0.1821,0.3277 0.3642,0.6555 -0.2891,1.0188 -0.6533,0.3633 -0.8354,0.0355 -1.0175,-0.2922 -1.9318,-3.4767 -4.7749,-5.4798 -8.1609,-6.3262 -3.5237,-0.881 -7.6496,-0.5277 -11.9701,0.714 0.1465,0.0945 0.2788,0.1838 0.3957,0.2663 2.1673,1.5301 3.6914,3.9915 4.3571,7.0049 0.6234,2.8217 0.4954,6.1446 -0.5656,9.6431 -0.8308,2.7399 -2.8172,6.3185 -6.0728,8.7083 -0.5983,0.4392 -1.2389,0.8384 -1.9219,1.1858 0.3202,0.7954 0.519,1.6643 0.6039,2.583 0.2904,3.1429 -0.7852,6.8631 -2.8854,10.1967 -2.0906,3.3184 -5.2041,6.2748 -9.0006,7.9148 -1.5598,0.6738 -3.2405,1.1259 -5.0192,1.2902 -0.3734,0.0345 -0.7468,0.069 -0.8142,-0.6751 -0.0674,-0.7441 0.306,-0.7786 0.6794,-0.8131 1.604,-0.1482 3.1325,-0.5615 4.5622,-1.179 3.5049,-1.514 6.3863,-4.2544 8.3268,-7.3346 1.9309,-3.0648 2.9233,-6.4459 2.6628,-9.2651 -0.0692,-0.7492 -0.2303,-1.4604 -0.4887,-2.1146 -1.7829,0.665 -3.8169,0.981 -6.1117,0.7756 -2.6884,-0.2406 -5.1589,-1.1952 -7.0305,-2.5114 -12.1107,2.5245 -18.6904,-0.7254 -19.7378,-9.75 -0.0432,-0.3724 -0.0864,-0.7449 0.6577,-0.8299 0.7441,-0.085 0.7873,0.2875 0.8305,0.6599 0.8882,7.6525 6.4795,10.5462 16.7728,8.683 -0.1456,-0.1463 -0.2845,-0.295 -0.4162,-0.446 -0.8564,-0.9823 -1.4219,-2.0634 -1.6052,-3.1593 -0.1898,-1.1344 0.0269,-2.2744 0.7463,-3.3314 1.1003,-1.6168 3.3895,-3.0092 7.2276,-3.8112 0.3997,-0.0835 0.7995,-0.167 0.9821,0.5625 0.1826,0.7295 -0.2172,0.813 -0.6168,0.8965 -3.3657,0.7033 -5.3193,1.8453 -6.2027,3.1432 -0.4984,0.7324 -0.6481,1.5258 -0.5155,2.3178 0.1388,0.8303 0.585,1.6696 1.2656,2.4503 1.6206,1.859 4.5152,3.3442 7.7958,3.6378 3.3744,0.302 6.104,-0.6836 8.2277,-2.2424 2.9537,-2.1683 4.762,-5.4348 5.5219,-7.9407 0.9882,-3.2586 1.1099,-6.3423 0.5334,-8.9517 -0.5875,-2.6599 -1.8989,-4.8086 -3.7483,-6.1143 -1.769,-1.2489 -7.2856,-4.1422 -15.3539,-3.3887 -4.8614,0.454 -10.6416,2.2376 -17.0834,6.5032 -3.5097,3.0096 -6.0816,6.4947 -7.8587,10.1942 -3.1277,6.5111 -3.8016,13.6911 -2.7961,20.1237 1.0016,6.4079 3.6627,12.0525 7.2158,15.5284 1.3106,1.2822 2.7371,2.262 4.2377,2.8648 3.5423,1.4231 9.1653,3.4984 15.9768,3.8242 6.783,0.3243 14.7681,-1.0911 23.0902,-6.6345 1.9416,-1.2934 3.8928,-2.8015 5.8402,-4.5523 1.9649,-1.7664 3.9356,-3.7835 5.9006,-6.0801l-0.0256 0.0293c3.8457,-4.9808 6.7318,-11.1871 8.7071,-17.4968 2.3143,-7.3923 3.374,-14.9137 3.2617,-20.7724 -0.0968,-5.0497 -0.6531,-9.8613 -1.8719,-14.1418 -1.208,-4.2432 -3.0667,-7.9714 -5.775,-10.8981 -2.3775,-2.5696 -5.5337,-4.489 -8.8417,-5.9315 -3.3392,-1.4561 -6.8326,-2.4254 -9.8473,-3.0873 -4.3598,-0.9573 -11.1923,-1.5933 -19.0446,-1.0394 -5.9942,0.4228 -12.5647,1.5389 -19.0534,3.7338 -6.225,2.1056 -12.9784,5.0059 -18.7798,9.3219 -5.7701,4.2925 -10.6125,9.9972 -13.0697,17.7341 -0.1142,0.3601 -0.2286,0.7202 -1.0135,0.5122 -0.7849,-0.208 -0.6706,-0.5681 -0.5563,-0.9282z"/> </g> </g> </svg>