<svg version="1.1" id="Layer_1" xmlns="http://www.w3.org/2000/svg" x="0px" y="0px"
	viewBox="0 0 500 500" enable-background="new 0 0 500 500">
	<!-- <rect x="-0.2" y="-0.4" fill="#ffcce6" width="500" height="500" /> -->
	<g>
		<path fill="#FFFFFF"
			d="M305.9,213.7v-22.5l-37.3,33.7l-37.3-33.7c0,0,0,0,12.4-11.2c6.9-6.2,12.4-11.2,0-22.5L218.9,180v-22.5 c0-22.5-12.4-22.5-24.8-22.5v56.2h-24.8l24.8,11.2l-24.8,11.2h24.8v56.2c0,0,0,0,0,0c0,24.6,15.9,45.8,38.9,55.8v30.5h11.7v-26.6 c5.6,1.4,11.6,2.1,17.7,2.1c3,0,6-0.2,8.9-0.5v33.8H283v-36.1c27.7-7.9,47.7-31.3,47.7-58.9v-78.6L305.9,213.7z" />
		<ellipse cx="212.7" cy="196.9" rx="6.2" ry="5.6" />
		<path fill-rule="evenodd" clip-rule="evenodd" fill="#FF4D4D"
			d="M194.1,191.2v-56.2c12.4,0,24.8,0,24.8,22.5V180L194.1,191.2z" />
		<path fill-rule="evenodd" clip-rule="evenodd" fill="#FF4D4D"
			d="M218.9,180l24.8-22.5c12.4,11.2,8.8,14.5,0,22.5 c-12.4,11.2,0,0-12.4,11.2L218.9,180z" />
		<path fill-rule="evenodd" clip-rule="evenodd" fill="#FFA500"
			d="M169.3,191.2h24.8v11.2l-24.8,11.2h24.8v-11.2L169.3,191.2z" />
	</g>
</svg>